<svg xmlns="http://www.w3.org/2000/svg" width="17.356" height="17.359" viewBox="0 0 17.356 17.359"><defs><style>.a{fill:#fff;}</style></defs><path class="a" d="M17.761,5.1A6.343,6.343,0,0,0,17.357,3a4.447,4.447,0,0,0-2.54-2.54,6.36,6.36,0,0,0-2.106-.4C11.782.01,11.487,0,9.13,0S6.478.01,5.552.051a6.345,6.345,0,0,0-2.106.4,4.236,4.236,0,0,0-1.54,1,4.274,4.274,0,0,0-1,1.536A6.36,6.36,0,0,0,.5,5.1C.459,6.03.449,6.325.449,8.681s.01,2.652.051,3.578a6.343,6.343,0,0,0,.4,2.106,4.446,4.446,0,0,0,2.54,2.54,6.36,6.36,0,0,0,2.106.4c.926.041,1.221.051,3.578.051s2.652-.01,3.578-.051a6.342,6.342,0,0,0,2.106-.4,4.44,4.44,0,0,0,2.54-2.54,6.364,6.364,0,0,0,.4-2.106c.041-.926.051-1.221.051-3.578s0-2.652-.044-3.578ZM16.2,12.191a4.758,4.758,0,0,1-.3,1.611,2.88,2.88,0,0,1-1.648,1.648,4.775,4.775,0,0,1-1.611.3c-.916.041-1.19.051-3.506.051s-2.594-.01-3.507-.051a4.756,4.756,0,0,1-1.611-.3,2.671,2.671,0,0,1-1-.648,2.7,2.7,0,0,1-.648-1,4.776,4.776,0,0,1-.3-1.611c-.041-.916-.051-1.19-.051-3.507s.01-2.594.051-3.506a4.756,4.756,0,0,1,.3-1.611,2.639,2.639,0,0,1,.651-1,2.7,2.7,0,0,1,1-.648,4.778,4.778,0,0,1,1.611-.3c.916-.041,1.19-.051,3.506-.051s2.594.01,3.507.051a4.758,4.758,0,0,1,1.611.3,2.669,2.669,0,0,1,1,.648,2.7,2.7,0,0,1,.648,1,4.777,4.777,0,0,1,.3,1.611c.041.916.051,1.19.051,3.506s-.01,2.587-.051,3.5Zm0,0" transform="translate(-0.449 0)"/><path class="a" d="M129.408,124.5a4.459,4.459,0,1,0,4.459,4.459A4.461,4.461,0,0,0,129.408,124.5Zm0,7.352a2.893,2.893,0,1,1,2.893-2.893A2.893,2.893,0,0,1,129.408,131.852Zm0,0" transform="translate(-120.727 -120.278)"/><path class="a" d="M364.532,89.643a1.041,1.041,0,1,1-1.041-1.041A1.041,1.041,0,0,1,364.532,89.643Zm0,0" transform="translate(-350.174 -85.597)"/></svg>