<svg xmlns="http://www.w3.org/2000/svg" width="24.793" height="17.359" viewBox="0 0 24.793 17.359"><defs><style>.a{fill:#fff;}</style></defs><path class="a" d="M24.283-3.366A3.106,3.106,0,0,0,22.1-5.551c-1.94-.531-9.7-.531-9.7-.531s-7.76,0-9.7.511A3.169,3.169,0,0,0,.511-3.366,32.729,32.729,0,0,0,0,2.6,32.608,32.608,0,0,0,.511,8.561,3.107,3.107,0,0,0,2.7,10.746c1.96.531,9.7.531,9.7.531s7.76,0,9.7-.511a3.106,3.106,0,0,0,2.185-2.185,32.739,32.739,0,0,0,.51-5.963,31.068,31.068,0,0,0-.511-5.984ZM9.926,6.314V-1.119L16.38,2.6Zm0,0" transform="translate(-0.001 6.082)"/></svg>