<svg xmlns="http://www.w3.org/2000/svg" viewBox="0 0 856 856"><defs><style>.cls-1{fill:#ffca63;}.cls-2{fill:#fff;}.cls-2,.cls-3{stroke:#fff;stroke-miterlimit:10;}.cls-3{fill:none;stroke-width:2px;}</style></defs><title>Asset 4</title><g id="Layer_2" data-name="Layer 2"><g id="Layer_1-2" data-name="Layer 1"><circle class="cls-1" cx="428" cy="428" r="428"/><path class="cls-2" d="M246.64,529l.48-.47H247C246.87,528.66,246.75,528.81,246.64,529Z"/><path class="cls-2" d="M757.12,396.71V548.5h-110V415.66c0-27.05-6.62-34.16-20.32-34.16-12.75,0-22.68,11.86-22.68,34.63V548.5l-109,1V418.56c0-25.15-5.67-36.06-20.32-36.06-10.39,0-22.68,8.54-22.68,34.63V549.5h-105v-120L465.38,311.24a89.69,89.69,0,0,1,55.29-18.89c32.7,0,57.34,11.38,71.08,36,16.11-20.4,39.33-36,75.81-36C738.64,292.35,757.12,355.44,757.12,396.71Z"/><path class="cls-2" d="M347.12,416c0-16.9-1.46-33.06-5-47.85-11.16-46.68-43-79.78-115.09-79.78-44.14,0-88.76,16.61-118.66,45.55L163,388c13.76-11.38,32.75-21.35,52.68-21.35,17.09,0,28.48,7.12,28.48,22.3v1c-66,0-145.24,14.24-145.24,84,0,59.3,47.94,80.18,86.86,80.18,16,0,34.74-4.07,48.5-13.69L246.64,528c.11-.16.23-.31.33-.47h.15l100-100Zm-96,36c0,20.88-13.76,35.58-34.63,35.58-10.44,0-25.15-5.69-25.15-19.45,0-19,21.35-24.67,53.61-24.67h6.17Z"/><line class="cls-3" x1="128.62" y1="647" x2="566.62" y2="209"/></g></g></svg>