<svg xmlns="http://www.w3.org/2000/svg" viewBox="0 0 640 230.95"><defs><style>.cls-1,.cls-10,.cls-13,.cls-3,.cls-4,.cls-5{isolation:isolate;}.cls-1{font-size:134.86px;font-family:OpenSans-Bold, Open Sans;font-weight:700;}.cls-1,.cls-3,.cls-4,.cls-5,.cls-9{fill:#3f3d56;}.cls-2{letter-spacing:-0.04em;}.cls-3{font-size:83.21px;}.cls-3,.cls-4,.cls-5{font-family:OpenSans-Extrabold, Open Sans;font-weight:800;}.cls-4{font-size:94.65px;}.cls-5{font-size:113.11px;}.cls-6{letter-spacing:-0.12em;}.cls-7{letter-spacing:-0.02em;}.cls-8{letter-spacing:-0.1em;}.cls-10{opacity:0.2;}.cls-11,.cls-13{fill:#ffca63;}.cls-12{fill:#e6e6e6;}.cls-13{opacity:0.3;}</style></defs><title>cup-of-tea</title><g id="Layer_2" data-name="Layer 2"><g id="Layer_1-2" data-name="Layer 1"><text class="cls-1" transform="translate(0 115.57)">fi<tspan class="cls-2" x="93.31" y="0">n</tspan><tspan x="176.55" y="0">d</tspan></text><text class="cls-3" transform="translate(273.77 99.27)">your</text><text class="cls-4" transform="translate(0.13 203.22)"> </text><text class="cls-5" transform="translate(0 192.14)">cup<tspan class="cls-6" x="209.49" y="0"> </tspan><tspan class="cls-7" x="225.3" y="0">o</tspan><tspan class="cls-8" x="295.12" y="0">f</tspan><tspan x="330.53" y="0" xml:space="preserve"> tea</tspan></text><g id="undraw_cup_of_tea_6nqg" data-name="undraw cup of tea 6nqg"><path id="Path_25" data-name="Path 25" class="cls-9" d="M635.19,104.48c0,4.17-38.65,16.7-86.32,16.7s-86.31-12.53-86.31-16.7,38.64,1.59,86.31,1.59S635.19,100.3,635.19,104.48Z"/><path id="Path_26" data-name="Path 26" class="cls-10" d="M635.19,104.48c0,4.17-38.65,16.7-86.32,16.7s-86.31-12.53-86.31-16.7,38.64,1.59,86.31,1.59S635.19,100.3,635.19,104.48Z"/><ellipse id="Ellipse_12" data-name="Ellipse 12" class="cls-9" cx="548.87" cy="104.47" rx="86.31" ry="7.56"/><ellipse id="Ellipse_13" data-name="Ellipse 13" class="cls-10" cx="548.21" cy="105.23" rx="35.52" ry="3.32"/><path id="Path_27" data-name="Path 27" class="cls-9" d="M617.39,29H578.58v.25H485.8V42.65a62.57,62.57,0,0,0,62.57,62.58h0a62.54,62.54,0,0,0,54.06-31h15a22.62,22.62,0,0,0,0-45.23Zm0,38.26H605.94a62.27,62.27,0,0,0,5-24.57V35.94h6.44a15.64,15.64,0,0,1,0,31.28Z"/><path id="Path_28" data-name="Path 28" class="cls-11" d="M491.61,35v7.63a56.77,56.77,0,1,0,113.53.48V35Z"/><path id="Path_29" data-name="Path 29" class="cls-12" d="M533.53,89l-13-13.39a7.11,7.11,0,0,1,.16-10l19.65-19.07a5,5,0,0,1,1.63-1l4.27-1.71a5,5,0,0,1,5.45,1.16l13.57,14a5,5,0,0,1,1.07,5.32l-1.44,3.65a5.07,5.07,0,0,1-1.17,1.76L543.57,89.17a7.1,7.1,0,0,1-10-.15Z"/><rect id="Rectangle_8" data-name="Rectangle 8" class="cls-9" x="555.56" y="49.3" width="1.36" height="9.07" transform="translate(119.55 402.55) rotate(-44.14)"/><path id="Path_30" data-name="Path 30" class="cls-9" d="M556.85,54.17c1.15-2.72,4.58-3.31,7.13-3.85s5.79-1.58,6.92-4.39a3.74,3.74,0,0,0-.37-3.56,3.43,3.43,0,0,0-3-1.62c-2.52.23-3,3.21-2,5.09,1.31,2.53,4.64,2.75,7.14,2.82a15.46,15.46,0,0,0,7.21-1.12A5.93,5.93,0,0,0,583.22,42c-.08-2.44-1.15-4.71-1.8-7s-.81-4.7.84-6.55,4.09-2.5,6.38-2.86c.59-.09,1.18-.15,1.77-.2s.64-1.05,0-1c-4.24.34-9.79,1.8-10.4,6.81-.28,2.29.58,4.54,1.28,6.68.65,2,1.41,4.28.58,6.32s-3.13,3-5.26,3.36a21.37,21.37,0,0,1-3.48.18,15.93,15.93,0,0,1-4-.4,4.15,4.15,0,0,1-2.74-2,3,3,0,0,1-.07-2.67,1.72,1.72,0,0,1,2.34-.66l.09,0a2.87,2.87,0,0,1,1.45,2.75c-.37,2.82-3.59,4-6,4.48-2.61.58-5.54,1-7.4,3.13a5.73,5.73,0,0,0-.94,1.53.5.5,0,0,0,.35.61.51.51,0,0,0,.61-.35Z"/><circle id="Ellipse_14" data-name="Ellipse 14" class="cls-12" cx="516.67" cy="46.47" r="3.65"/><circle id="Ellipse_15" data-name="Ellipse 15" class="cls-12" cx="583.73" cy="60.08" r="3.65"/><circle id="Ellipse_16" data-name="Ellipse 16" class="cls-12" cx="565.47" cy="79.34" r="2.66"/><path id="Path_31" data-name="Path 31" class="cls-12" d="M470.79,103.32c10.85,2.42,22.82.63,22.82.63s-5.62-5.71-16.46-8.13S640,78.1,640,78.1,460,100.9,470.79,103.32Z"/><path id="Path_32" data-name="Path 32" class="cls-11" d="M471.87,107.4a63.48,63.48,0,0,0,21.82-3.46,57.41,57.41,0,0,0-20.93-4.7c-7.42-.13,170.86-16,163.84-13.63,6.62,2.87-171.94,21.55-164.73,21.79Z"/><path id="Path_33" data-name="Path 33" class="cls-11" d="M472.71,99.25c8.43,4.25,20.85,4.78,20.85,4.78s-1.25-6.36-9.69-10.61S463,88.63,463,88.63,464.27,95,472.71,99.25Z"/><path id="Path_35" data-name="Path 35" class="cls-13" d="M491.44,35.18v7.64a56.77,56.77,0,0,0,113.54,0V35.18Z"/><path id="Path_39" data-name="Path 39" class="cls-12" d="M599.13,34.64l-5.72,2.89a2.36,2.36,0,0,1-3.2-.93l-3.93-7.8a1.38,1.38,0,0,1-.16-.6L586,26.72a1.75,1.75,0,0,1,1-1.6l6-3a1.71,1.71,0,0,1,1.82.13l1,.77a1.45,1.45,0,0,1,.43.52l4,8A2.36,2.36,0,0,1,599.13,34.64Z"/><rect id="Rectangle_10" data-name="Rectangle 10" class="cls-9" x="588.82" y="24.27" width="3.11" height="0.43" transform="translate(52.14 268.29) rotate(-26.74)"/><rect id="Rectangle_11" data-name="Rectangle 11" class="cls-11" x="588.49" y="26.43" width="6.89" height="1.99" transform="translate(49.98 267.07) rotate(-26.51)"/><rect id="Rectangle_12" data-name="Rectangle 12" class="cls-11" x="589.82" y="28.75" width="6.89" height="1.99" transform="translate(49.09 267.9) rotate(-26.51)"/><rect id="Rectangle_13" data-name="Rectangle 13" class="cls-11" x="591.15" y="31.41" width="6.89" height="1.99" transform="translate(48.04 268.78) rotate(-26.51)"/></g></g></g></svg>