<svg xmlns="http://www.w3.org/2000/svg" viewBox="0 0 500 74.97"><defs><style>.cls-1{fill:#fff;}.cls-2{fill:#ffc964;}</style></defs><title>logo</title><g id="Layer_2" data-name="Layer 2"><g id="Layer_1-2" data-name="Layer 1"><path class="cls-1" d="M30.68,39.49c0-3.2-2.4-4.71-6-4.71-4.21,0-8.23,2.1-11.14,4.5L2,27.87c6.31-6.11,15.74-9.62,25.07-9.62,20,0,25.36,12.13,25.36,27V73H31.49V68.77h-.2c-2.61,4-8.32,5.61-12.93,5.61C10.11,74.4,0,70,0,57.45,0,42.7,16.74,39.71,30.68,39.71v-.22Zm.19,11.65c-6.82,0-11.32,1.21-11.32,5.2,0,2.91,3.1,4.1,5.31,4.1,4.42,0,7.33-3.1,7.33-7.52v-1.8H30.87Z"/><path class="cls-1" d="M57.94,20.25H80.2v6h.19a14.51,14.51,0,0,1,12.94-7.42,17,17,0,0,1,4.42.51L95.94,39a19.46,19.46,0,0,0-4.9-.6c-6,0-9.93,4-9.93,9V73H58V20.25Z"/><path class="cls-1" d="M107.48,55.64V36.8h-7.42V20.25h7.33V8.43h22.46V20.27h11.43V36.82H129.85v14c0,5.12,2.32,6.52,6.23,6.52a15.62,15.62,0,0,0,4.2-.59V72.64c-2.4,1-7.12,1.8-11.94,1.8C114.28,74.4,107.48,68.39,107.48,55.64Z"/><path class="cls-1" d="M202.42,52h-35.5c.41,3.72,4.83,6,9,6a10.92,10.92,0,0,0,8.63-3.72L201,62.65C196.41,70.17,187.08,75,175.36,75c-15.34,0-29.87-9.73-29.87-28.38,0-17.44,13.13-28.38,29.38-28.38,16.55,0,27.77,12.23,27.77,28.87C202.62,48.82,202.51,50.84,202.42,52ZM164.23,14.45,175.36,0H196.6L181.16,14.45ZM182.67,39.6c0-3.72-3-6.42-7.63-6.42-5.12,0-7.93,3.51-8.33,6.42Z"/><path class="cls-2" d="M288.25,42.92V73h-12V46.31c0-5.71-1.3-12.83-9-12.83-7.52,0-10.62,7-10.62,13.24V73h-12V43.91c0-5.9-2.8-10.43-8.92-10.43-7.22,0-10.54,6.61-10.54,13V73h-12V24.86H224.5v7.73h.19c2.1-4.72,7.22-9.11,14.93-9.11,7.42,0,12.33,3.71,15,9.11,3.2-5.82,8.62-9.11,15.84-9.11C283.05,23.45,288.25,33.08,288.25,42.92Z"/><path class="cls-2" d="M338.18,73H326.75V65.29h-.19c-2.1,4.82-7.82,9.11-14.94,9.11-12.53,0-17.74-9.62-17.74-19.46V24.86h12V51.52c0,5.71,1.29,12.83,9,12.83s11.24-6.61,11.24-13V24.86h12V73Z"/><path class="cls-2" d="M375,37.71a13.66,13.66,0,0,0-10.54-5.2c-3.8,0-7.71,1.4-7.71,5.2s3.72,4.72,10.43,6.31c7.12,1.7,15.53,4.91,15.53,14.34,0,11.73-9.52,16-20.06,16-7.41,0-15.14-2.8-19.75-7.92l7.92-7.42a15.7,15.7,0,0,0,12.32,6c3.51,0,7.71-1.4,7.71-5.71,0-4-3.71-5.21-11-6.93-7.12-1.7-14.24-4.61-14.24-13.64,0-10.73,9.63-15.34,19.15-15.34,6.92,0,14.12,2.41,18,7.33Z"/><path class="cls-2" d="M395.22,1.3c4.42,0,7.82,3.1,7.82,7.22s-3.4,7.22-7.82,7.22a7.4,7.4,0,0,1-7.62-7.22A7.45,7.45,0,0,1,395.22,1.3Zm-5.9,23.56h12V73h-12Z"/><path class="cls-2" d="M442.86,38.2c-1.92-2.7-6-4.72-9.93-4.72-8.81,0-13.23,7.93-13.23,15.45s4.5,15.44,13.64,15.44c3.72,0,7.82-1.51,10.13-4.31L451,67.69c-4,4.31-10.62,6.71-17.74,6.71C419,74.4,407.18,65,407.18,48.93c0-15.64,11.63-25.48,25.78-25.48,7,0,14.34,2.81,18.14,7.53Z"/><path class="cls-2" d="M488.77,66.88h-.3c-2.4,4.21-8.12,7.33-14.94,7.33-7.71,0-18-3.72-18-14.94,0-14.34,18-16.33,33.08-16.33V41.73c0-5.91-5-8.82-11-8.82a19.15,19.15,0,0,0-13.13,5.52l-6.23-7.33a30.42,30.42,0,0,1,20.36-7.62C495.8,23.48,500,34.1,500,43.72V73H488.77V66.88ZM488.57,51h-2.69c-7.63,0-18.36.89-18.36,8,0,4.61,4.31,6,8.41,6,8.23,0,12.65-4.71,12.65-12.32V51Z"/></g></g></svg>