<svg xmlns="http://www.w3.org/2000/svg" viewBox="0 0 37.05 24.91"><defs><style>.cls-1{fill:#ff6584;}.cls-2{fill:#fff;}</style></defs><title>round-logo</title><g id="Layer_2" data-name="Layer 2"><g id="Layer_1-2" data-name="Layer 1"><circle class="cls-1" cx="16.01" cy="12.45" r="12.45"/><path class="cls-2" d="M32,5a5.1,5.1,0,0,0-4.26,2,4.22,4.22,0,0,0-4-2A5.05,5.05,0,0,0,20.64,6L26.43.24,26.19,0,14,12.22v-.65a12.23,12.23,0,0,0-.28-2.69c-.63-2.62-2.42-4.49-6.48-4.49A9.75,9.75,0,0,0,.54,7l3.07,3a4.79,4.79,0,0,1,3-1.2c1,0,1.6.4,1.6,1.25v.06c-3.71,0-8.17.8-8.17,4.72,0,3.34,2.7,4.51,4.89,4.51a4.91,4.91,0,0,0,2.73-.77L1.51,24.68l.24.23L14,12.68v6.75h5.91V12c0-1.46.69-1.94,1.28-1.94.82,0,1.14.61,1.14,2v7.36l6.13-.06V11.93c0-1.28.56-1.95,1.28-1.95s1.14.4,1.14,1.92v7.47h6.19V10.84C37.05,8.52,36,5,32,5ZM6.82,15.6h-.2c-.59,0-1.42-.32-1.42-1.1,0-1.06,1.2-1.38,3-1.38h.35v.48A1.89,1.89,0,0,1,6.82,15.6Z"/></g></g></svg>