<svg xmlns="http://www.w3.org/2000/svg" width="1083.695" height="157.488" viewBox="0 0 1083.695 157.488"><defs><style>.a{fill:#45435b;}</style></defs><path class="a" d="M-481.439-42.074V-38.6c0,8.492-5.6,14.475-14.089,14.475-4.246,0-10.229-2.316-10.229-7.913,0-7.72,8.685-10.036,21.809-10.036Zm-2.9-22c-26.827,0-59.058,5.79-59.058,34.161C-543.392-5.79-523.9,2.7-508.073,2.7c8.878,0,19.879-3.088,24.9-10.808h.386V0h40.337V-53.461c0-28.564-10.229-51.917-48.829-51.917-17.949,0-36.091,6.755-48.25,18.528l22.2,22c5.6-4.632,13.317-8.685,21.423-8.685,6.948,0,11.58,2.895,11.58,9.071ZM-424.118,0h44.583V-49.215c0-9.65,7.527-17.37,19.107-17.37a38.461,38.461,0,0,1,9.457,1.158l3.474-37.828a33.173,33.173,0,0,0-8.492-.965,27.858,27.858,0,0,0-24.9,14.282h-.386v-11.58h-42.846Zm127.766,2.7c9.264,0,18.335-1.544,22.967-3.474V-31.266a30.18,30.18,0,0,1-8.106,1.158c-7.527,0-11.966-2.7-11.966-12.545v-27.02h22v-31.845h-22v-22.774h-43.232v22.774h-14.089v31.845H-336.5v36.284C-336.5-8.878-323.372,2.7-296.352,2.7Zm73.919-66.971c.772-5.6,6.176-12.352,16.019-12.352,8.878,0,14.668,5.211,14.668,12.352Zm69.094,14.475c0-32.038-21.616-55.584-53.461-55.584-31.266,0-56.549,21.037-56.549,54.619,0,35.9,27.985,54.619,57.514,54.619,22.581,0,40.53-9.264,49.408-23.739L-188.079-35.9c-2.7,3.474-8.492,7.141-16.6,7.141s-16.6-4.439-17.37-11.58h68.322C-153.532-42.653-153.339-46.513-153.339-49.794Zm-41.3-62.918,29.722-27.792h-40.916l-21.423,27.792ZM-30.977,0V-53.847c0-9.264,4.053-14.089,9.264-14.089,5.6,0,8.3,2.9,8.3,13.9V0H31.169V-61.76c0-16.791-7.527-42.46-36.477-42.46-14.861,0-24.318,6.369-30.88,14.668-5.6-10.036-15.633-14.668-28.95-14.668a36.487,36.487,0,0,0-28.757,13.9h-.386v-11.194h-43.425V0h44.583V-53.847c0-10.615,5.018-14.089,9.264-14.089,5.983,0,8.3,4.439,8.3,14.668V0Zm189.14-101.518H113.58v53.654c0,8.878-4.246,13.9-10.036,13.9-6.369,0-9.65-3.667-9.65-13.9v-53.654H49.118v61.76c0,20.072,7.72,42.46,36.284,42.46,12.931,0,23.932-6.369,28.95-13.9h.386V0h43.425ZM261.8-32.231c0-19.493-15.826-28.371-31.845-31.652-11.58-2.316-13.51-3.281-13.51-5.79,0-3.281,3.281-4.246,7.527-4.246,6.369,0,13.317,2.509,19.686,6.562l20.844-24.9c-12.352-8.3-28.564-13.124-44.2-13.124-18.528,0-44.583,10.036-44.583,36.477,0,19.493,15.826,27.985,28.564,30.88,11.773,2.7,16.019,4.246,16.019,7.527,0,3.088-3.281,4.053-6.369,4.053-7.72,0-16.791-3.86-22.967-9.457L169.164-10.615c12.159,9.264,30.3,14.475,47.671,14.475C235.749,3.86,261.8-5.018,261.8-32.231ZM277.823,0h44.583V-101.518H277.823Zm-.772-130.854c0,12.738,10.615,22.581,23.353,22.581a22.774,22.774,0,0,0,22.774-22.581A23.2,23.2,0,0,0,300.4-153.628C287.667-153.628,277.051-143.206,277.051-130.854ZM398.255,3.86c14.861,0,29.336-5.211,37.828-11.966L413.7-39.372c-3.088,3.281-8.3,5.4-13.51,5.4-8.492,0-17.37-5.4-17.37-16.791s8.878-17.177,17.37-17.177c4.632,0,10.229,1.93,13.317,5.6l22.2-32.038c-7.72-5.983-22.967-11-36.863-11-33.968,0-59.83,21.616-59.83,54.619C339-17.563,363.9,3.86,398.255,3.86ZM501.318-42.074V-38.6c0,8.492-5.6,14.475-14.089,14.475-4.246,0-10.229-2.316-10.229-7.913,0-7.72,8.685-10.036,21.809-10.036Zm-2.9-22c-26.827,0-59.058,5.79-59.058,34.161C439.365-5.79,458.857,2.7,474.684,2.7c8.878,0,19.879-3.088,24.9-10.808h.386V0H540.3V-53.461c0-28.564-10.229-51.917-48.829-51.917-17.949,0-36.091,6.755-48.25,18.528l22.2,22c5.6-4.632,13.317-8.685,21.423-8.685,6.948,0,11.58,2.895,11.58,9.071Z" transform="translate(543.392 153.628)"/></svg>