<svg id="google-icon" xmlns="http://www.w3.org/2000/svg" width="20.309" height="20.723" viewBox="0 0 20.309 20.723">
  <defs>
    <style>
      .cls-1 {
        fill: #4285f4;
      }

      .cls-2 {
        fill: #34a853;
      }

      .cls-3 {
        fill: #fbbc05;
      }

      .cls-4 {
        fill: #eb4335;
      }
    </style>
  </defs>
  <path id="Path_588" data-name="Path 588" class="cls-1" d="M140.5,108.879a8.879,8.879,0,0,0-.219-2.118H130.55v3.845h5.71a5.063,5.063,0,0,1-2.118,3.362l-.019.129,3.076,2.383.213.021a10.131,10.131,0,0,0,3.085-7.621" transform="translate(-120.188 -98.288)"/>
  <path id="Path_589" data-name="Path 589" class="cls-2" d="M23.181,164.682a9.876,9.876,0,0,0,6.862-2.51l-3.27-2.533a6.133,6.133,0,0,1-3.592,1.036,6.238,6.238,0,0,1-5.895-4.306l-.122.01-3.2,2.475-.042.116a10.354,10.354,0,0,0,9.256,5.71" transform="translate(-12.82 -143.959)"/>
  <path id="Path_590" data-name="Path 590" class="cls-3" d="M4.467,78.063a6.379,6.379,0,0,1-.345-2.049,6.7,6.7,0,0,1,.334-2.049l-.006-.137L1.211,71.312l-.106.05a10.34,10.34,0,0,0,0,9.3l3.362-2.6" transform="translate(0 -65.652)"/>
  <path id="Path_591" data-name="Path 591" class="cls-4" d="M23.181,4.006a5.743,5.743,0,0,1,4.006,1.543l2.924-2.855A9.955,9.955,0,0,0,23.181,0a10.354,10.354,0,0,0-9.256,5.71l3.35,2.6a6.263,6.263,0,0,1,5.906-4.306" transform="translate(-12.82)"/>
</svg>
