<svg xmlns="http://www.w3.org/2000/svg" width="640" height="264" viewBox="0 0 640 264"><defs><style>.a,.c{fill:#3f3d56;}.a{font-size:76px;font-family:OpenSans-Extrabold, Open Sans;font-weight:800;}.b{font-size:98px;}.d{opacity:0.2;}.e,.g{fill:#ffca63;}.f{fill:#e6e6e6;}.g{opacity:0.3;}</style></defs><g transform="translate(-1200 -1563)"><text class="a" transform="translate(1201 1563)"><tspan x="0" y="81" xml:space="preserve">   find</tspan><tspan x="0" y="143">your</tspan><tspan x="0" y="205"> </tspan><tspan class="b" y="205">cup of tea</tspan></text><g transform="translate(1414.043 1448.22)"><path class="c" d="M509.417,735.307c0,4.1-37.972,16.415-84.813,16.415s-84.813-12.314-84.813-16.415,37.972,1.563,84.813,1.563S509.417,731.205,509.417,735.307Z" transform="translate(-300.715 -530.747)"/><path class="d" d="M509.417,735.307c0,4.1-37.972,16.415-84.813,16.415s-84.813-12.314-84.813-16.415,37.972,1.563,84.813,1.563S509.417,731.205,509.417,735.307Z" transform="translate(-300.715 -530.747)"/><ellipse class="c" cx="84.813" cy="7.426" rx="84.813" ry="7.426" transform="translate(39.076 197.133)"/><ellipse class="d" cx="34.904" cy="3.262" rx="34.904" ry="3.262" transform="translate(88.333 202.041)"/><path class="c" d="M539.091,510.923H500.965v.241H409.791v13.211a61.489,61.489,0,0,0,61.489,61.489h0a61.459,61.459,0,0,0,53.116-30.5h14.695a22.221,22.221,0,0,0,0-44.442Zm0,37.592H527.848a61.288,61.288,0,0,0,4.922-24.139v-6.6h6.322a15.371,15.371,0,0,1,0,30.741Z" transform="translate(-347.881 -380.562)"/><path class="e" d="M427.291,529.163v7.5a55.781,55.781,0,1,0,111.561,0v-7.5Z" transform="translate(-359.672 -392.853)"/><path class="f" d="M523.132,599.225l-12.77-13.161a6.978,6.978,0,0,1,.149-9.867l19.314-18.741a4.917,4.917,0,0,1,1.6-1.037l4.2-1.676a4.916,4.916,0,0,1,5.353,1.142l13.336,13.744a4.916,4.916,0,0,1,1.047,5.223l-1.411,3.589a4.915,4.915,0,0,1-1.152,1.729L533,599.374a6.978,6.978,0,0,1-9.867-.149Z" transform="translate(-414.318 -409.852)"/><rect class="c" width="8.909" height="1.336" transform="translate(128.502 151.133) rotate(45.863)"/><path class="c" d="M621.84,526.266c1.129-2.679,4.494-3.256,7-3.787,2.661-.565,5.691-1.547,6.8-4.314a3.667,3.667,0,0,0-.357-3.5,3.387,3.387,0,0,0-2.929-1.586c-2.478.222-2.919,3.148-1.972,4.995,1.278,2.493,4.559,2.71,7.014,2.771a15.131,15.131,0,0,0,7.085-1.1,5.819,5.819,0,0,0,3.267-5.492c-.076-2.393-1.132-4.626-1.763-6.9-.606-2.186-.8-4.61.817-6.428,1.563-1.762,4.027-2.457,6.274-2.813.577-.091,1.158-.153,1.74-.2.623-.05.629-1.029,0-.979-4.166.335-9.625,1.77-10.223,6.689-.273,2.248.576,4.467,1.262,6.566.637,1.951,1.383,4.2.567,6.211-.856,2.113-3.072,2.972-5.171,3.295a20.611,20.611,0,0,1-3.416.185,15.71,15.71,0,0,1-3.935-.4,4.035,4.035,0,0,1-2.694-1.944,2.951,2.951,0,0,1-.076-2.617,1.693,1.693,0,0,1,2.39-.6,2.8,2.8,0,0,1,1.423,2.7c-.358,2.772-3.527,3.885-5.847,4.4-2.556.57-5.439.987-7.265,3.078a5.482,5.482,0,0,0-.926,1.5.493.493,0,0,0,.342.6.5.5,0,0,0,.6-.342Z" transform="translate(-490.111 -371.133)"/><circle class="f" cx="3.588" cy="3.588" r="3.588" transform="translate(88.659 143.976)"/><circle class="f" cx="3.588" cy="3.588" r="3.588" transform="translate(154.552 157.351)"/><circle class="f" cx="2.61" cy="2.61" r="2.61" transform="translate(137.589 177.249)"/><path class="f" d="M331.2,717.108c10.656,2.377,22.417.621,22.417.621s-5.517-5.611-16.173-7.988-22.417-.621-22.417-.621S320.546,714.73,331.2,717.108Z" transform="translate(-284.031 -513.686)"/><path class="e" d="M325.349,730.576a62.33,62.33,0,0,0,21.447-3.4,56.474,56.474,0,0,0-20.567-4.617,62.328,62.328,0,0,0-21.447,3.4,56.473,56.473,0,0,0,20.567,4.616Z" transform="translate(-277.125 -523.145)"/><path class="e" d="M350.693,701.095c8.288,4.179,20.494,4.7,20.494,4.7s-1.232-6.252-9.52-10.431-20.494-4.7-20.494-4.7S342.405,696.916,350.693,701.095Z" transform="translate(-301.646 -501.671)"/><path class="g" d="M426.791,529.663v7.5a55.781,55.781,0,0,0,111.561,0v-7.5Z" transform="translate(-359.335 -393.189)"/><path class="f" d="M724.615,502.194l-5.62,2.835a2.316,2.316,0,0,1-3.141-.909l-3.867-7.667a1.474,1.474,0,0,1-.155-.59l-.074-1.456a1.693,1.693,0,0,1,.956-1.571l5.869-2.961a1.7,1.7,0,0,1,1.787.13l.993.754a1.476,1.476,0,0,1,.426.511l3.963,7.857A2.316,2.316,0,0,1,724.615,502.194Z" transform="translate(-551.344 -366.25)"/><rect class="c" width="3.058" height="0.426" transform="matrix(0.893, -0.45, 0.45, 0.893, 163.205, 126.456)"/><rect class="e" width="6.768" height="1.957" transform="translate(162.737 129.485) rotate(-26.507)"/><rect class="e" width="6.768" height="1.957" transform="translate(164.041 131.768) rotate(-26.507)"/><rect class="e" width="6.768" height="1.957" transform="translate(165.346 134.378) rotate(-26.507)"/></g></g></svg>