<svg xmlns="http://www.w3.org/2000/svg" xmlns:xlink="http://www.w3.org/1999/xlink" width="514.977" height="378.973" viewBox="0 0 514.977 378.973"><defs><style>.a,.e,.g{fill:#ffca63;}.a,.c,.k{opacity:0.1;}.b{fill:#d0d2d5;}.d,.l{fill:#444053;}.f{fill:#fff;}.g{opacity:0.3;}.h,.m{fill:#3f3d56;}.h{opacity:0.2;}.i{fill:#ee8e9e;}.j{fill:#454b69;}.l{opacity:0.6;}.n{fill:url(#a);}.o{fill:#a26565;}.p{fill:#efb7b9;}</style><linearGradient id="a" x1="0.5" y1="1" x2="0.5" gradientUnits="objectBoundingBox"><stop offset="0" stop-color="gray" stop-opacity="0.251"/><stop offset="0.54" stop-color="gray" stop-opacity="0.122"/><stop offset="1" stop-color="gray" stop-opacity="0.102"/></linearGradient></defs><g transform="translate(-0.001 -0.005)"><path class="a" d="M334.212,91.049c-33.014-1.144-64.46-11.808-94.484-23.466S179.958,43,147.737,36.825C127.01,32.851,103.307,32.3,86.608,43.4,70.534,54.093,65.344,72.569,62.554,89.682c-2.1,12.888-3.336,26.433,2.415,38.515,4,8.372,11.093,15.413,16,23.434,17.067,27.919,5.013,62.341-13.5,89.594-8.659,12.788-18.745,24.984-25.439,38.6s-9.794,29.2-3.938,43.086c5.811,13.763,19.647,24.1,34.636,31.369,30.448,14.766,66.328,19,101.316,21.388,77.453,5.277,155.316,3,232.97.72,28.739-.852,57.6-1.714,85.875-6.157,15.7-2.466,31.9-6.38,43.3-15.837,14.47-12,18.056-32.33,8.358-47.4-16.261-25.243-61.229-31.514-72.595-58.608-6.257-14.912.169-31.524,9.261-45.355,19.506-29.673,52.2-55.7,53.923-89.617C536.319,90.119,520.6,66.79,496.3,55.77c-25.476-11.553-60.8-10.1-79.59,9.024C397.368,84.486,363.361,92.061,334.212,91.049Z" transform="translate(-35 -34.22)"/><path class="b" d="M558.049,706.907l-88.869-1.139.26-2.279,4.3-37.6h78.046l5.742,37.6.438,2.848Z" transform="translate(-255.355 -362.415)"/><path class="c" d="M557.963,751.238H513.615l-44.435-.57.26-2.279h88.085Z" transform="translate(-255.355 -407.316)"/><rect class="b" width="117.923" height="2.848" transform="translate(199.013 341.644)"/><path class="d" d="M566.384,195.691a7.415,7.415,0,0,0-7.378-7.451H229.683a7.415,7.415,0,0,0-7.383,7.451V395.305H566.384Z" transform="translate(-136.939 -118.044)"/><path class="b" d="M222.3,638.24v23.379A7.383,7.383,0,0,0,229.683,669H559.005a7.383,7.383,0,0,0,7.378-7.383V638.24Z" transform="translate(-136.939 -362.961)"/><rect class="a" width="317.309" height="179.448" transform="translate(99.602 82.729)"/><path class="e" d="M594.388,667.948a7.7,7.7,0,0,0,6.052-2.935h0a7.844,7.844,0,0,0,.6-.88l-4.22-.693,4.557.036a7.679,7.679,0,0,0,.146-6.1l-6.121,3.19,5.647-4.147a7.688,7.688,0,1,0-12.7,8.6h0A7.688,7.688,0,0,0,594.388,667.948Z" transform="translate(-335.276 -370.78)"/><path class="c" d="M585.43,671.52l35.452,35.6-5.437-35.6Z" transform="translate(-318.626 -365.479)"/><rect class="f" width="208.273" height="124.873" rx="2.6" transform="translate(108.922 115.104)"/><rect class="f" width="317.195" height="10.482" transform="translate(99.807 82.747)"/><rect class="e" width="9.115" height="6.38" rx="0.78" transform="translate(101.175 84.57)"/><rect class="g" width="95.705" height="6.38" rx="0.58" transform="translate(209.641 84.57)"/><path class="d" d="M694.427,224.416h-.232l-.087-.073a1.937,1.937,0,0,0,.456-1.24,1.887,1.887,0,1,0-1.882,1.9,1.946,1.946,0,0,0,1.24-.456l.087.073v.237l1.458,1.458.456-.456Zm-1.75,0a1.317,1.317,0,1,1,1.313-1.313,1.3,1.3,0,0,1-1.312,1.313Z" transform="translate(-391.92 -135.999)"/><circle class="e" cx="3.19" cy="3.19" r="3.19" transform="translate(409.255 84.57)"/><rect class="f" width="29.623" height="20.053" rx="2.43" transform="translate(332.235 104.622)"/><rect class="f" width="38.282" height="3.19" rx="0.61" transform="translate(369.606 104.622)"/><rect class="f" width="38.282" height="3.19" rx="0.61" transform="translate(369.606 111.459)"/><rect class="f" width="38.282" height="3.19" rx="0.61" transform="translate(369.606 118.295)"/><rect class="f" width="29.623" height="20.053" rx="2.43" transform="translate(332.235 136.068)"/><rect class="f" width="38.282" height="3.19" rx="0.61" transform="translate(369.606 136.068)"/><rect class="f" width="38.282" height="3.19" rx="0.61" transform="translate(369.606 142.905)"/><rect class="f" width="38.282" height="3.19" rx="0.66" transform="translate(369.606 149.741)"/><rect class="f" width="29.623" height="20.053" rx="2.43" transform="translate(332.235 167.515)"/><rect class="f" width="38.282" height="3.19" rx="0.66" transform="translate(369.606 167.515)"/><rect class="f" width="38.282" height="3.19" rx="0.66" transform="translate(369.606 174.351)"/><rect class="f" width="38.282" height="3.19" rx="0.66" transform="translate(369.606 181.187)"/><rect class="f" width="29.623" height="20.053" rx="2.43" transform="translate(332.235 198.961)"/><rect class="f" width="38.282" height="3.19" rx="0.66" transform="translate(369.606 198.961)"/><rect class="f" width="38.282" height="3.19" rx="0.66" transform="translate(369.606 205.797)"/><rect class="f" width="38.282" height="3.19" rx="0.66" transform="translate(369.606 212.633)"/><rect class="f" width="29.623" height="20.053" rx="2.43" transform="translate(332.235 230.407)"/><rect class="f" width="38.282" height="3.19" rx="0.66" transform="translate(369.606 230.407)"/><rect class="f" width="38.282" height="3.19" rx="0.66" transform="translate(369.606 237.243)"/><rect class="f" width="38.282" height="3.19" rx="0.66" transform="translate(369.606 244.079)"/><rect class="a" width="46.864" height="2.429" transform="translate(138.965 148.196)"/><rect class="a" width="4.512" height="12.843" transform="translate(143.13 135.353)"/><rect class="a" width="4.512" height="12.843" transform="translate(149.725 135.353)"/><rect class="a" width="4.512" height="12.843" transform="translate(156.319 135.353)"/><rect class="a" width="4.512" height="12.843" transform="translate(162.914 135.353)"/><rect class="a" width="4.512" height="12.843" transform="translate(169.508 135.353)"/><rect class="a" width="4.512" height="12.843" transform="translate(176.107 135.353)"/><rect class="a" width="4.512" height="1.39" transform="translate(143.13 137.782)"/><rect class="a" width="4.512" height="1.39" transform="translate(149.725 137.782)"/><rect class="a" width="4.512" height="1.39" transform="translate(156.319 137.782)"/><rect class="a" width="4.512" height="1.39" transform="translate(162.914 137.782)"/><rect class="a" width="4.512" height="1.39" transform="translate(169.508 137.782)"/><rect class="a" width="4.512" height="1.39" transform="translate(176.107 137.782)"/><rect class="a" width="4.512" height="1.39" transform="translate(143.13 144.03)"/><rect class="a" width="4.512" height="1.39" transform="translate(149.725 144.03)"/><rect class="a" width="4.512" height="1.39" transform="translate(156.319 144.03)"/><rect class="a" width="4.512" height="1.39" transform="translate(162.914 144.03)"/><rect class="a" width="4.512" height="1.39" transform="translate(169.508 144.03)"/><rect class="a" width="4.512" height="1.39" transform="translate(176.107 144.03)"/><rect class="a" width="46.864" height="2.429" transform="translate(241.711 154.444)"/><rect class="a" width="4.512" height="12.843" transform="translate(245.877 141.601)"/><rect class="a" width="4.512" height="12.843" transform="translate(252.471 141.601)"/><rect class="a" width="4.512" height="12.843" transform="translate(259.066 141.601)"/><rect class="a" width="4.512" height="12.843" transform="translate(265.665 141.601)"/><rect class="a" width="4.512" height="12.843" transform="translate(272.26 141.601)"/><rect class="a" width="4.512" height="12.843" transform="translate(278.854 141.601)"/><rect class="a" width="4.512" height="1.39" transform="translate(245.877 144.03)"/><rect class="a" width="4.512" height="1.39" transform="translate(252.471 144.03)"/><rect class="a" width="4.512" height="1.39" transform="translate(259.066 144.03)"/><rect class="a" width="4.512" height="1.39" transform="translate(265.665 144.03)"/><rect class="a" width="4.512" height="1.39" transform="translate(272.26 144.03)"/><rect class="a" width="4.512" height="1.39" transform="translate(278.854 144.03)"/><rect class="a" width="4.512" height="1.39" transform="translate(245.877 150.278)"/><rect class="a" width="4.512" height="1.39" transform="translate(252.471 150.278)"/><rect class="a" width="4.512" height="1.39" transform="translate(259.066 150.278)"/><rect class="a" width="4.512" height="1.39" transform="translate(265.665 150.278)"/><rect class="a" width="4.512" height="1.39" transform="translate(272.26 150.278)"/><rect class="a" width="4.512" height="1.39" transform="translate(278.854 150.278)"/><rect class="a" width="46.864" height="2.429" transform="translate(241.711 172.145)"/><rect class="a" width="4.512" height="12.843" transform="translate(245.877 159.302)"/><rect class="a" width="4.512" height="12.843" transform="translate(252.471 159.302)"/><rect class="a" width="4.512" height="12.843" transform="translate(259.066 159.302)"/><rect class="a" width="4.512" height="12.843" transform="translate(265.665 159.302)"/><rect class="a" width="4.512" height="12.843" transform="translate(272.26 159.302)"/><rect class="a" width="4.512" height="12.843" transform="translate(278.854 159.302)"/><rect class="a" width="4.512" height="1.39" transform="translate(245.877 161.731)"/><rect class="a" width="4.512" height="1.39" transform="translate(252.471 161.731)"/><rect class="a" width="4.512" height="1.39" transform="translate(259.066 161.731)"/><rect class="a" width="4.512" height="1.39" transform="translate(265.665 161.731)"/><rect class="a" width="4.512" height="1.39" transform="translate(272.26 161.731)"/><rect class="a" width="4.512" height="1.39" transform="translate(278.854 161.731)"/><rect class="a" width="4.512" height="1.39" transform="translate(245.877 167.979)"/><rect class="a" width="4.512" height="1.39" transform="translate(252.471 167.979)"/><rect class="a" width="4.512" height="1.39" transform="translate(259.066 167.979)"/><rect class="a" width="4.512" height="1.39" transform="translate(265.665 167.979)"/><rect class="a" width="4.512" height="1.39" transform="translate(272.26 167.979)"/><rect class="a" width="4.512" height="1.39" transform="translate(278.854 167.979)"/><path class="a" d="M399.843,395.794a12.966,12.966,0,0,1-.957-1.408l6.749-1.107-7.292.055a12.332,12.332,0,0,1-.237-9.744l9.776,5.068-9.028-6.636a12.3,12.3,0,1,1,20.312,13.763,11.96,11.96,0,0,1,1.4,2.242l-8.759,4.557,9.338-3.131a12.305,12.305,0,0,1-1.982,11.535,12.3,12.3,0,1,1-19.323,0,12.305,12.305,0,0,1,0-15.208Z" transform="translate(-232.13 -220.131)"/><path class="a" d="M421.8,436.123a12.256,12.256,0,0,1-2.635,7.594,12.305,12.305,0,1,1-19.322,0C398.188,441.633,421.8,434.742,421.8,436.123Z" transform="translate(-232.129 -252.858)"/><path class="h" d="M423.034,499.695a1.152,1.152,0,0,1,.059.1h-4.175c.023-.032.036-.068.059-.1a4.043,4.043,0,0,1-.538-2.055,4.22,4.22,0,0,1,.251-1.449h0c.232.036.52.077.852.114a14.624,14.624,0,0,0,2.912,0q.419-.041.861-.109a.041.041,0,0,0,0,.023,4.1,4.1,0,0,1,.246,1.426A4.043,4.043,0,0,1,423.034,499.695Z" transform="translate(-243.69 -285.649)"/><path class="a" d="M356.3,449.758H333.06c-.05-.132-.1-.273-.137-.41a12.236,12.236,0,0,1,.269-8.039,12.305,12.305,0,0,1-4.489-14.534,11.77,11.77,0,0,1-1.326-1.062l6.116-3.049-6.955,2.206a12.3,12.3,0,0,1-3.1-9.238l10.851,1.96-10.582-3.678a12.3,12.3,0,1,1,23.466,7.155,12.469,12.469,0,0,1,2.019,1.755l-7.028,6.932,8-5.751a12.3,12.3,0,0,1,1.513,11.621A12.3,12.3,0,0,1,356.3,449.758Z" transform="translate(-191.962 -235.612)"/><path class="a" d="M367.02,477.481H343.778c-.05-.132-.1-.273-.137-.41a12.237,12.237,0,0,1,.269-8.039c-2.188-1.513,18.334-15.071,18.74-13.75a12.25,12.25,0,0,1-.269,8.044,12.3,12.3,0,0,1,4.639,14.155Z" transform="translate(-202.68 -263.335)"/><path class="a" d="M580.774,445.345a12.259,12.259,0,0,1-6.157,5.177,12.487,12.487,0,0,1,.05,2.643l-9.849-.592,9.621,2.087a12.3,12.3,0,0,1-1.467,3.719,12.109,12.109,0,0,1-3.281,3.6H556.282v.351H542.61c.027-.118.055-.232.087-.351a12.3,12.3,0,0,1,7.5-8.345A12.305,12.305,0,0,1,558,440.583a12.472,12.472,0,0,1-.1-1.7l6.358,2.511-6.289-3.7a12.3,12.3,0,0,1,4.826-8.468l5.792,9.379-4.343-10.327a12.3,12.3,0,0,1,16.53,17.063Z" transform="translate(-311.271 -247.852)"/><path class="a" d="M572.971,489.752a12.109,12.109,0,0,1-3.281,3.6H556.282v.351H542.61c.027-.118.055-.232.087-.351a12.3,12.3,0,0,1,7.5-8.345c-.114-.911,2.534-.775,6.066-.182C563.182,485.987,573.441,488.968,572.971,489.752Z" transform="translate(-311.271 -279.206)"/><path class="i" d="M478,423.363s1.686,9.115-2.078,12.091,3.19,20.814,14.666,18.731S506.74,437.14,506.74,437.14s-11.494-2.379-7.233-14.47Z" transform="translate(-274.417 -245.635)"/><path class="c" d="M478,423.363s1.686,9.115-2.078,12.091,3.19,20.814,14.666,18.731S506.74,437.14,506.74,437.14s-11.494-2.379-7.233-14.47Z" transform="translate(-274.417 -245.635)"/><circle class="i" cx="19.027" cy="19.027" r="19.027" transform="translate(194.715 146.364)"/><path class="e" d="M497.578,460.243v12.934H434.75V460.831a7.967,7.967,0,0,1,4.863-7.338l1.8-.765c4.557-1.941,10.095-4.352,11.9-5.355a2.974,2.974,0,0,0,.556-.36c.989-.989.793.3.793.3s-.027.246-.046.67c-.109,2.912.31,14.356,13.722,13.4,13.084-.911,13.672-9.762,13.54-12.364a7.054,7.054,0,0,0-.059-.72,16.906,16.906,0,0,1,2.648.866,55.524,55.524,0,0,1,7.852,3.4c.337.237.747.483,1.194.734a7.852,7.852,0,0,1,1.413,1.007,7.98,7.98,0,0,1,2.648,5.938Z" transform="translate(-252.568 -258.681)"/><path class="c" d="M506.632,449.164c-1.107,5.132-4.585,14.743-17.118,14.994-13.353.264-14.128-13.016-14.041-16.785a2.692,2.692,0,0,0,.561-.36c.994-.989.793.3.793.3s-1.682,15.162,13.672,14.073,13.467-13.08,13.467-13.08A18.718,18.718,0,0,1,506.632,449.164Z" transform="translate(-274.729 -258.681)"/><path class="j" d="M453.043,362.1a3.259,3.259,0,0,1,3.432,1.253,6.219,6.219,0,0,1,.884,3.263c.825.173,1.29-.761,1.367-1.467.305-2.876.328-5.806,1.294-8.586a10.249,10.249,0,0,1,6.317-6.531,7.328,7.328,0,0,1,3.45-.328c.688.114,1.335.355,2.019.456,2.37.392,4.945-.729,7.164.05a5.713,5.713,0,0,1,2.93,2.762,5.961,5.961,0,0,0,1.139,1.654,7.892,7.892,0,0,0,3.774,1.331c1.354.264,2.83.725,3.409,1.768.52.943.137,2.033-.036,3.053a7.483,7.483,0,0,0,.77,4.726c.251.456.761,1.007,1.367.857a1.2,1.2,0,0,0,.647-.524c1.554-2.178,1.513-5.013,3.464-6.977.652-.656,1.495-1.167,2.128-1.823a4.138,4.138,0,0,0,1.1-3.755c-.351-1.5-1.554-2.734-2.525-4.056a15.951,15.951,0,0,1-2.7-5.61,1.016,1.016,0,0,1,0-.734,1.955,1.955,0,0,1,.693-.565,2.616,2.616,0,0,0,.884-3.341,5.57,5.57,0,0,0-3.131-2.493,20.419,20.419,0,0,0-4.27-.911,2.322,2.322,0,0,1-2.374-1.171c-.132-.342-.132-.711-.264-1.053a2.415,2.415,0,0,0-1.823-1.276,5.332,5.332,0,0,0-2.438.173c-.911.255-1.946.638-2.734.191-.415-.232-.643-.656-1.089-.848-.911-.383-1.85.392-2.5,1.03a6.089,6.089,0,0,1-2.256,1.518,3.359,3.359,0,0,1-2.8-.187,8.831,8.831,0,0,1-1.436-1.54,5.405,5.405,0,0,0-3.4-1.367,11.955,11.955,0,0,0-3.833.419,23.143,23.143,0,0,0-6.731,2.826,7.232,7.232,0,0,0-2.584,2.4,5.469,5.469,0,0,0-.579,2.475,8.931,8.931,0,0,0,3.122,7.415c-1.422.592-1.9,2.046-2.233,3.336a18.259,18.259,0,0,0-.866,6.248,13.723,13.723,0,0,1,.237,3.249,7,7,0,0,0-.21,1.554,1.49,1.49,0,0,0,1.217,1.135Z" transform="translate(-261.823 -195.755)"/><g class="k" transform="translate(189.962 142.13)"><path d="M545.127,378a4.446,4.446,0,0,1-.82,1.212c-.633.665-1.477,1.18-2.128,1.823-1.951,1.951-1.91,4.8-3.464,6.982a1.171,1.171,0,0,1-.647.52c-.592.155-1.1-.383-1.367-.857a7.84,7.84,0,0,1-.679-1.823l-.091.456a7.484,7.484,0,0,0,.77,4.726c.251.456.761,1.007,1.367.857a1.2,1.2,0,0,0,.647-.524c1.554-2.178,1.513-5.013,3.464-6.977.652-.656,1.495-1.167,2.128-1.823a4.138,4.138,0,0,0,1.1-3.755,4.89,4.89,0,0,0-.283-.816Z" transform="translate(-497.543 -363.453)"/><path d="M546,347.8a1.909,1.909,0,0,0-.693.565,1.007,1.007,0,0,0,0,.729,15.412,15.412,0,0,0,.688,2.078h0a2.616,2.616,0,0,0,.884-3.341,3.18,3.18,0,0,0-.319-.533A2.624,2.624,0,0,1,546,347.8Z" transform="translate(-502.664 -346.744)"/><path d="M454.966,351.362a8.45,8.45,0,0,1-2.985-5.282,7.117,7.117,0,0,0-.137,1.24,9.489,9.489,0,0,0,1.5,5.638A3.19,3.19,0,0,1,454.966,351.362Z" transform="translate(-451.826 -346.08)"/><path d="M490.324,375.623c.173-1.025.556-2.115.036-3.053-.579-1.048-2.055-1.5-3.409-1.768a7.941,7.941,0,0,1-3.774-1.331,5.96,5.96,0,0,1-1.139-1.654,5.643,5.643,0,0,0-2.93-2.762c-2.219-.779-4.794.337-7.164-.05-.684-.114-1.331-.351-2.019-.456a7.292,7.292,0,0,0-3.45.328,10.27,10.27,0,0,0-6.317,6.531c-.966,2.775-.989,5.706-1.294,8.586-.077.7-.542,1.641-1.367,1.467a6.269,6.269,0,0,0-.884-3.268,3.259,3.259,0,0,0-3.432-1.249,1.668,1.668,0,0,1-.962-.615,5.281,5.281,0,0,1,0,1.258,7,7,0,0,0-.21,1.554,1.49,1.49,0,0,0,1.189,1.171,3.259,3.259,0,0,1,3.432,1.253,6.219,6.219,0,0,1,.884,3.263c.825.173,1.29-.761,1.367-1.467.305-2.876.328-5.806,1.294-8.586a10.249,10.249,0,0,1,6.317-6.531,7.328,7.328,0,0,1,3.45-.328c.688.114,1.335.355,2.019.456,2.37.392,4.945-.729,7.164.05a5.713,5.713,0,0,1,2.93,2.762,5.961,5.961,0,0,0,1.139,1.654,7.893,7.893,0,0,0,3.774,1.331c1.354.264,2.734.693,3.341,1.659A.394.394,0,0,1,490.324,375.623Z" transform="translate(-451.923 -356.09)"/><path d="M452.1,382.8a8.659,8.659,0,0,0-.15-2.538,11.309,11.309,0,0,0-.087,2.661,4.847,4.847,0,0,0,.082.679C451.993,383.332,452.061,383.067,452.1,382.8Z" transform="translate(-451.819 -364.683)"/></g><path class="d" d="M403.49,535.116v-8.226a.232.232,0,0,1,.232-.232h.934a.232.232,0,0,1,.232.232v3.423l3.792-3.514a.62.62,0,0,1,1.016.456v7.451a.62.62,0,0,1-1.016.456l-3.792-3.491v3.4a.232.232,0,0,1-.232.232h-.934A.232.232,0,0,1,403.49,535.116Z" transform="translate(-235.554 -302.23)"/><path class="d" d="M597.124,526.907v8.226a.232.232,0,0,1-.237.232h-.911a.232.232,0,0,1-.232-.232v-3.423l-3.792,3.509a.624.624,0,0,1-1.021-.456v-7.479a.624.624,0,0,1,1.021-.456l3.792,3.491v-3.4a.232.232,0,0,1,.232-.232h.911a.232.232,0,0,1,.237.219Z" transform="translate(-337.57 -302.247)"/><path class="d" d="M497.306,535.692h-1.855a.911.911,0,0,1-.911-.911v-6.809a.912.912,0,0,1,.911-.911h1.855a.912.912,0,0,1,.911.911v6.809A.911.911,0,0,1,497.306,535.692Zm5.879-.911v-6.809a.912.912,0,0,0-.911-.911H500.4a.912.912,0,0,0-.911.911v6.809a.911.911,0,0,0,.911.911h1.855a.911.911,0,0,0,.93-.911Z" transform="translate(-285.109 -302.45)"/><rect class="l" width="109.378" height="1.217" transform="translate(159.054 213.572)"/><circle class="d" cx="2.885" cy="2.885" r="2.885" transform="translate(189.944 211.293)"/><rect class="d" width="33.775" height="1.217" transform="translate(159.054 213.572)"/><ellipse class="e" cx="27.103" cy="5.214" rx="27.103" ry="5.214" transform="translate(409.077 340.486)"/><ellipse class="m" cx="3.154" cy="4.129" rx="3.154" ry="4.129" transform="translate(432.575 339.356)"/><ellipse class="m" cx="3.154" cy="4.129" rx="3.154" ry="4.129" transform="translate(432.575 334.306)"/><ellipse class="m" cx="3.154" cy="4.129" rx="3.154" ry="4.129" transform="translate(432.575 329.261)"/><ellipse class="m" cx="3.154" cy="4.129" rx="3.154" ry="4.129" transform="translate(432.575 324.212)"/><ellipse class="m" cx="3.154" cy="4.129" rx="3.154" ry="4.129" transform="translate(432.575 319.162)"/><ellipse class="m" cx="3.154" cy="4.129" rx="3.154" ry="4.129" transform="translate(432.575 314.112)"/><ellipse class="m" cx="3.154" cy="4.129" rx="3.154" ry="4.129" transform="translate(432.575 309.063)"/><path class="e" d="M984.762,616.413a15.617,15.617,0,0,0,1.176-1.732l-8.294-1.367,8.969.068a15.162,15.162,0,0,0,.287-11.977l-12.022,6.244,11.093-8.153A15.117,15.117,0,1,0,961,616.413a15.432,15.432,0,0,0-1.723,2.734l10.765,5.592-11.476-3.851A15.126,15.126,0,0,0,961,635.08a15.112,15.112,0,1,0,23.762,0,15.122,15.122,0,0,0,0-18.685Z" transform="translate(-537.224 -337.766)"/><path class="c" d="M957.78,665.864a15.04,15.04,0,0,0,3.231,9.343,15.112,15.112,0,1,0,23.762,0C986.8,672.641,957.78,664.169,957.78,665.864Z" transform="translate(-537.232 -377.875)"/><ellipse class="a" cx="45.118" cy="9.571" rx="45.118" ry="9.571" transform="translate(87.047 359.837)"/><path class="n" d="M314.3,627.269a11.876,11.876,0,0,0-2.839-.383,8.787,8.787,0,0,1-5.223-2.534,9.569,9.569,0,0,1-2.087-3.19c.3.109.6.223.911.346-.911-2.128.046-4.516.884-6.667q2.133-5.469,4.033-11c3.19-9.338,5.925-19.05,5.865-28.985,0-3.591-.661-6.987-.788-10.573-.1-2.662.314-5.318.3-7.985,0-.374,0-.743-.027-1.117a7.078,7.078,0,0,0,2.4-5.77,13.9,13.9,0,0,0-.242-1.677,27.209,27.209,0,0,0-.638-2.853c-.3-.989-.711-1.937-1.062-2.9-.679-1.873-1.139-3.824-1.718-5.729a1.974,1.974,0,0,1,.62.169,1.335,1.335,0,0,1-.292-.6,14.772,14.772,0,0,1-.547-3.723l.387-.173a9.693,9.693,0,0,0-.187-3.687c.219-1.955.561-3.924.77-5.87.077-.729.046-1.645-.624-1.823-.137-1.044-.191-2.1-.246-3.154q-.287-5.51-.57-11.015c-.191-3.687-.383-7.369-.456-11.061a32.288,32.288,0,0,0-.633-7.009,8.476,8.476,0,0,0-.324-3.19c-.848-2.684-3.482-4.813-6.152-4.662a12.24,12.24,0,0,0-2.912-2.944c.533-1.194,1.171-2.424,1.7-3.391A11.049,11.049,0,0,0,312,463.5a11.589,11.589,0,0,0-1.253-5.282,5.7,5.7,0,0,0,.2-.615,5.054,5.054,0,0,0-.205-2.958,8.655,8.655,0,0,0-.456-1.057c-.118-.228-.246-.456-.378-.674l-.232-.351a6.558,6.558,0,0,0-.456-.62,15.084,15.084,0,0,0-1.039-1.249,10.283,10.283,0,0,0-1.495-1.331,6.59,6.59,0,0,0-2.461-1.135,7.5,7.5,0,0,0-1.563-.141c-.314,0-.634,0-.948.027-.638.036-1.272.082-1.9.077a4.213,4.213,0,0,1-.633-.032,23.072,23.072,0,0,1-3.3-.688l-.547-.114c-.187-.036-.369-.068-.556-.091a10.433,10.433,0,0,0-1.509-.091h-.506a13.977,13.977,0,0,0-1.508.155l-.5.077a14.4,14.4,0,0,0-3.669,1.089c-.15.068-.305.146-.456.228l-.091.05c-.123.064-.246.132-.365.205l-.068.041-.387.246-.032.023c-3.619,2.434-5.756,7.046-6.3,11.621-.606,5.136.456,10.313,1.518,15.368l.957,4.557c.041.205.087.406.128.611a10.027,10.027,0,0,0-3,4.165,17.78,17.78,0,0,0-.861,7.214c0,.5.027,1,.077,1.5-.114.948-.214,1.9-.278,2.857-.287,4.421.251,8.864.109,13.294-.109,3.413-.624,6.836-.374,10.227a46.17,46.17,0,0,0,1.823,8.828l1.148,4.138a1.1,1.1,0,0,0,.287.57.866.866,0,0,0,.643.132,38.787,38.787,0,0,0-1.869,5.232,16.178,16.178,0,0,0-.675,3.363,20.551,20.551,0,0,0,.816,6.189q1.094,4.557,2.178,9.151.766,3.213,1.527,6.421a68.427,68.427,0,0,1,2.2,12.811,27.821,27.821,0,0,1-.456,6.513,56.749,56.749,0,0,0-.565,19.519,95.709,95.709,0,0,0,3.687,16.138c.369-.2.743-.378,1.126-.547l-.159.3q-.788,1.367-1.458,2.8a15.936,15.936,0,0,0-.779,1.919,21.6,21.6,0,0,0-.757,5.683,2.78,2.78,0,0,0,.1,1.1,2.282,2.282,0,0,0,1.641,1.231,14.985,14.985,0,0,0,6.061.1.733.733,0,0,0,.041.132,2.273,2.273,0,0,0,1.641,1.231c2.816.8,5.788.046,8.691-.228s5.756-.073,8.55-.743a4.072,4.072,0,0,0,1.185-.456,3.879,3.879,0,0,0,1.495-2.074,2.659,2.659,0,0,0,.173-.679A2.31,2.31,0,0,0,314.3,627.269Zm-9.639-42.206a11.486,11.486,0,0,1-.911,3.09,58.971,58.971,0,0,0-4.676,14.661,67.981,67.981,0,0,0-1.035,10.14c-.046,2.507.05,5.132-.993,7.383l.378-.059c-.118.219-.232.456-.342.629l-.055.1a9.881,9.881,0,0,1-1.244-3.491c0-.041-.205-.073-.52-.091a94.307,94.307,0,0,1-1.331-21.825,10.1,10.1,0,0,1,.365-2.621c.232-.734.624-1.4.911-2.115a15.536,15.536,0,0,0,.911-3.71,52.7,52.7,0,0,0,.574-9.808,40.687,40.687,0,0,1,1.217-9.251c.292-1.463.561-2.93.706-4.4l.027-.3a44.147,44.147,0,0,1,5.6,14.529,20.782,20.782,0,0,1,.419,7.132ZM285.16,519.2l.146.128a10.017,10.017,0,0,1,1.212,1.271,1.681,1.681,0,0,1,.383.7c.137.665-.415,1.231-.866,1.718a7.745,7.745,0,0,0-.551.665q-.146-2.242-.31-4.484Z" transform="translate(-167.032 -258.974)"/><path class="e" d="M278.829,542.53l-.5,3.869c-.169,1.313-.337,2.62-.428,3.938-.305,4.384.26,8.787.114,13.18-.118,3.382-.656,6.759-.4,10.136a42.976,42.976,0,0,0,1.928,8.75l1.2,4.1a1.085,1.085,0,0,0,.3.565,1.062,1.062,0,0,0,.77.123l5.341-.483c-.342-1.568-.72-3.19-.911-4.8-.146-1.258-.232-2.525-.324-3.792-.283-3.947-.606-7.893-.911-11.849l-.57-6.927a52.253,52.253,0,0,0-1.249-8.951A17.815,17.815,0,0,0,278.829,542.53Z" transform="translate(-167.008 -310.87)"/><path class="c" d="M278.829,542.53l-.5,3.869c-.169,1.313-.337,2.62-.428,3.938-.305,4.384.26,8.787.114,13.18-.118,3.382-.656,6.759-.4,10.136a42.976,42.976,0,0,0,1.928,8.75l1.2,4.1a1.085,1.085,0,0,0,.3.565,1.062,1.062,0,0,0,.77.123l5.341-.483c-.342-1.568-.72-3.19-.911-4.8-.146-1.258-.232-2.525-.324-3.792-.283-3.947-.606-7.893-.911-11.849l-.57-6.927a52.253,52.253,0,0,0-1.249-8.951A17.815,17.815,0,0,0,278.829,542.53Z" transform="translate(-167.008 -310.87)"/><path class="o" d="M299.294,825.819a16.314,16.314,0,0,0-.82,1.9,20.51,20.51,0,0,0-.793,5.633,2.735,2.735,0,0,0,.1,1.089,2.375,2.375,0,0,0,1.727,1.217c2.958.8,6.075.05,9.115-.223s6.043-.073,8.978-.734a4.586,4.586,0,0,0,1.244-.433,3.878,3.878,0,0,0,1.572-2.051,2.68,2.68,0,0,0,.178-.675,2.329,2.329,0,0,0-1.723-2.2,12.99,12.99,0,0,0-2.981-.378,9.388,9.388,0,0,1-8.313-7.843,20.642,20.642,0,0,0-5.469.2,4.573,4.573,0,0,0-1.308,1.718Q300,824.4,299.294,825.819Z" transform="translate(-177.957 -462.441)"/><path class="c" d="M299.294,825.819a16.314,16.314,0,0,0-.82,1.9,20.51,20.51,0,0,0-.793,5.633,2.735,2.735,0,0,0,.1,1.089,2.375,2.375,0,0,0,1.727,1.217c2.958.8,6.075.05,9.115-.223s6.043-.073,8.978-.734a4.586,4.586,0,0,0,1.244-.433,3.878,3.878,0,0,0,1.572-2.051,2.68,2.68,0,0,0,.178-.675,2.329,2.329,0,0,0-1.723-2.2,12.99,12.99,0,0,0-2.981-.378,9.388,9.388,0,0,1-8.313-7.843,20.642,20.642,0,0,0-5.469.2,4.573,4.573,0,0,0-1.308,1.718Q300,824.4,299.294,825.819Z" transform="translate(-177.957 -462.441)"/><path class="o" d="M317.142,828.97a15.5,15.5,0,0,0-.82,1.9,20.287,20.287,0,0,0-.793,5.633,2.657,2.657,0,0,0,.1,1.089,2.375,2.375,0,0,0,1.723,1.221c2.958.793,6.08.046,9.115-.228s6.048-.073,8.978-.734a4.385,4.385,0,0,0,1.244-.456,3.86,3.86,0,0,0,1.572-2.051,2.681,2.681,0,0,0,.178-.674,2.334,2.334,0,0,0-1.723-2.2,13.247,13.247,0,0,0-2.981-.378,9.393,9.393,0,0,1-8.313-7.839,20.622,20.622,0,0,0-5.469.191,4.538,4.538,0,0,0-1.313,1.718C318.122,827.093,317.612,828.022,317.142,828.97Z" transform="translate(-187.671 -464.143)"/><path class="j" d="M319.393,673.163c.064,9.849-2.8,19.474-6.157,28.712q-2,5.5-4.234,10.9c-.884,2.133-1.882,4.5-.934,6.608a16,16,0,0,0-8.39-1.171c1.094-2.233.989-4.831,1.039-7.292a63.941,63.941,0,0,1,1.076-10.049,56.058,56.058,0,0,1,4.917-14.534,11.075,11.075,0,0,0,.952-3.063,19.562,19.562,0,0,0-.406-7.068,42.142,42.142,0,0,0-5.879-14.4l-.027.292a42.5,42.5,0,0,1-.738,4.361,38.147,38.147,0,0,0-1.281,9.169,49.6,49.6,0,0,1-.6,9.721,14.781,14.781,0,0,1-.98,3.673c-.314.706-.725,1.367-.971,2.1a9.57,9.57,0,0,0-.383,2.6,88.092,88.092,0,0,0,1.513,22.213,14.107,14.107,0,0,0-7.347,1.673,90.482,90.482,0,0,1-3.874-16,53.149,53.149,0,0,1,.592-19.351,25.713,25.713,0,0,0,.479-6.449,64.382,64.382,0,0,0-2.306-12.7l-1.6-6.38q-1.139-4.557-2.279-9.074a19.293,19.293,0,0,1-.857-6.134,15.221,15.221,0,0,1,.711-3.336,37.228,37.228,0,0,1,5.045-10.318c8.782.492,17.669-.328,26.433-1a1.773,1.773,0,0,1,1.24.21,1.754,1.754,0,0,1,.5,1.13l3.295,18.685a46.944,46.944,0,0,1,.934,7.884c0,2.643-.41,5.278-.31,7.916C318.7,666.24,319.375,669.6,319.393,673.163Z" transform="translate(-168.716 -356.749)"/><path class="c" d="M313.391,686.754a42.513,42.513,0,0,1-.738,4.361c-1.91-3.3-3.969-6.526-5.729-9.912-.456-.87-.884-1.755-1.317-2.639l-1.3-2.643c-.242-.5-.483-.994-.7-1.5a10.832,10.832,0,0,1-.816-2.279c.638-.118,2.215,1.6,2.689,2.055a36.763,36.763,0,0,1,2.734,3.026,33.171,33.171,0,0,1,2.853,3.737,18.174,18.174,0,0,1,2.324,5.792Z" transform="translate(-180.747 -381.41)"/><path class="p" d="M319.012,500.52s-4.876,7.77-3.974,9.4-15.358-1.445-15.358-1.445,8.855-7.77,7.948-11.024S319.012,500.52,319.012,500.52Z" transform="translate(-179.054 -285.828)"/><circle class="p" cx="11.024" cy="11.024" r="11.024" transform="translate(124.6 194.996)"/><path class="e" d="M307.777,516.592a11.193,11.193,0,0,0-4.635-3.728,16.58,16.58,0,0,0-3.3-.811l-4.4-.775a5.6,5.6,0,0,0-3.231.073,5.3,5.3,0,0,0-1.367,1.007,18.222,18.222,0,0,1-4.927,3.792c-.524.223-1.071.387-1.6.611a9.207,9.207,0,0,0-4.658,5.013,16.726,16.726,0,0,0-.911,7.146,12.562,12.562,0,0,0,.251,2.516,16.2,16.2,0,0,0,.834,2.306,42.183,42.183,0,0,1,1.522,4.89q1.709,6.54,2.844,13.216a4.955,4.955,0,0,0,.551,1.823,6.545,6.545,0,0,0,1.522,1.463,9.5,9.5,0,0,1,1.272,1.262,1.649,1.649,0,0,1,.415.674c.141.656-.456,1.221-.911,1.7a8.23,8.23,0,0,0-2.06,3.587,1.445,1.445,0,0,0-.328.989,1.732,1.732,0,0,1,.1.784,1.769,1.769,0,0,1-.415.643,2.429,2.429,0,0,0-.456,1.951,30.94,30.94,0,0,0,10.792,2.525c.911.046,1.823.046,2.734.155.647.082,1.285.214,1.932.292a20.874,20.874,0,0,0,2.826.073c4.908-.1,9.958-.223,14.465-2.169.424-2.311-.492-4.667-1.066-6.945-.911-3.646-1.139-7.378-1.823-11.056-.456-2.511-1.139-4.986-1.527-7.515a18.372,18.372,0,0,1,.219-7.611c.615-2.178.8-4.4,1.44-6.576s1.085-4.53.365-6.681A6.87,6.87,0,0,0,307.777,516.592Z" transform="translate(-167.655 -293.75)"/><path class="o" d="M314.577,461.11c.538-1.955-.52-3.992-1.777-5.583a9.455,9.455,0,0,0-5.246-3.678c-1.736-.351-3.537.073-5.3-.068-1.563-.123-3.067-.688-4.621-.911a14.637,14.637,0,0,0-4.229.159,16.065,16.065,0,0,0-3.851,1.076c-4.694,2.083-7.442,7.214-8.08,12.305s.479,10.222,1.591,15.231l1.007,4.53a89.976,89.976,0,0,1,2.374,14.274,30.286,30.286,0,0,1-2.224,14.173,30.484,30.484,0,0,0,14-15.855c.711-1.864,1.24-3.8,2.033-5.633.679-1.577,1.549-3.072,2.151-4.68a15.2,15.2,0,0,0,.962-5.683c-.036-1.458-.278-2.908-.237-4.366a6.032,6.032,0,0,1,1.422-4.033,12.323,12.323,0,0,1,3.318-1.973,13.814,13.814,0,0,0,4.644-3.874,4.249,4.249,0,0,0,.948-2.443A30.956,30.956,0,0,1,314.577,461.11Z" transform="translate(-169.04 -260.937)"/><path class="p" d="M352.389,647.9a29.245,29.245,0,0,0,.155,3.4c.187.839.62,1.6.875,2.415a11.484,11.484,0,0,1,.387,2.9c.036.82-.027,1.823-.757,2.206-.319.169-.7.169-1.035.314s-.615.542-.424.852.52.26.82.319.624.369.456.62a.519.519,0,0,1-.264.169,3.227,3.227,0,0,0-.857.41.875.875,0,0,0-.351.834.515.515,0,0,0,.734.337,2.278,2.278,0,0,0-.214.912c1.167.5,2.475-.155,3.568-.789a13.438,13.438,0,0,0,1.367-.875,6.836,6.836,0,0,0,2.661-5.82,13.567,13.567,0,0,0-.26-1.663,25.011,25.011,0,0,0-.67-2.83c-.314-.98-.743-1.914-1.112-2.876-.784-2.046-1.29-4.188-2-6.262a.948.948,0,0,0-.342-.542.961.961,0,0,0-.506-.1,8.288,8.288,0,0,0-2.374.219,2.525,2.525,0,0,0-1.449.911c-.214.456.128.839.333,1.217A10.2,10.2,0,0,1,352.389,647.9Z" transform="translate(-206.839 -364.918)"/><path class="c" d="M340.415,533.64a3.341,3.341,0,0,1,.583.811c1.568,2.848,1.586,6.253,1.659,9.5.082,3.646.283,7.292.483,10.961l.6,10.938c.059,1.044.114,2.087.264,3.122.7.178.729,1.089.652,1.823-.506,4.457-1.759,9.046-.456,13.335a1.339,1.339,0,0,0,.305.592,3.559,3.559,0,0,0-2.037-.027c-.652.137-1.281.378-1.937.529a4.113,4.113,0,0,0-2.333.911,45.225,45.225,0,0,1-1.527-5.888,22.664,22.664,0,0,0-1.135-5.387c-.3-.679-.7-1.308-1.062-1.96-1.91-3.409-2.848-7.26-3.764-11.061a16.146,16.146,0,0,1-.292-5.5,18.9,18.9,0,0,0,.228-2.529,19.426,19.426,0,0,0-.351-2.661,17.842,17.842,0,0,1,.533-7.707c.684-2.32,1.285-4.763,2.734-6.713S338,533.672,340.415,533.64Z" transform="translate(-195.608 -306.032)"/><path class="e" d="M341.616,532.84a3.371,3.371,0,0,1,.583.816c1.568,2.844,1.586,6.253,1.659,9.5.082,3.646.283,7.292.483,10.938l.6,10.938c.059,1.044.114,2.087.264,3.122.7.178.729,1.089.647,1.823-.5,4.457-1.755,9.042-.456,13.335a1.339,1.339,0,0,0,.305.592,3.56,3.56,0,0,0-2.037-.027c-.652.137-1.281.378-1.937.524a4.145,4.145,0,0,0-2.333.911,44.752,44.752,0,0,1-1.513-5.916,22.626,22.626,0,0,0-1.135-5.382,22.015,22.015,0,0,0-1.062-1.96c-1.914-3.409-2.848-7.265-3.764-11.065a16.143,16.143,0,0,1-.292-5.5,11.849,11.849,0,0,0-.123-5.191,17.818,17.818,0,0,1,.533-7.7c.684-2.32,1.285-4.762,2.734-6.713S339.2,532.876,341.616,532.84Z" transform="translate(-196.267 -305.596)"/><g class="k" transform="translate(115.175 189.848)"><path d="M320.4,455.527a9.455,9.455,0,0,0-5.246-3.678c-1.736-.351-3.537.073-5.3-.068-1.563-.123-3.067-.688-4.621-.911a14.637,14.637,0,0,0-4.229.159,16.065,16.065,0,0,0-3.851,1.076,11.441,11.441,0,0,0-1.9,1.08,16.207,16.207,0,0,1,3.4-.911,14.584,14.584,0,0,1,4.225-.159c1.559.2,3.058.761,4.626.884,1.764.141,3.564-.278,5.3.068a9.406,9.406,0,0,1,5.241,3.682c1.262,1.586,2.315,3.623,1.782,5.583a31.151,31.151,0,0,0-1.117,2.994,4.229,4.229,0,0,1-.952,2.443,13.843,13.843,0,0,1-3.345,3.113c.351-.164.711-.328,1.053-.506a13.812,13.812,0,0,0,4.644-3.874,4.249,4.249,0,0,0,.948-2.443,31.454,31.454,0,0,1,1.117-2.994C322.717,459.155,321.66,457.117,320.4,455.527Z" transform="translate(-291.818 -450.785)"/><path d="M308.055,497.563a4.552,4.552,0,0,1,.615-.533,9.442,9.442,0,0,0-2.967,1.823,6.094,6.094,0,0,0-1.422,4.033c-.055,1.458.205,2.908.237,4.361a15.227,15.227,0,0,1-.962,5.688c-.6,1.609-1.472,3.1-2.151,4.68-.788,1.823-1.317,3.764-2.028,5.628a30.535,30.535,0,0,1-11.58,14.411c-.027.059-.05.123-.077.182a30.485,30.485,0,0,0,14-15.855c.711-1.864,1.24-3.8,2.033-5.633.679-1.577,1.549-3.072,2.151-4.68a15.2,15.2,0,0,0,.962-5.683c-.036-1.458-.278-2.908-.237-4.366A6.091,6.091,0,0,1,308.055,497.563Z" transform="translate(-287.72 -475.954)"/></g></g></svg>