<?xml version="1.0" encoding="utf-8"?>
<!-- Generator: Adobe Illustrator 23.0.2, SVG Export Plug-In . SVG Version: 6.00 Build 0)  -->
<svg version="1.1" id="Layer_1" xmlns="http://www.w3.org/2000/svg" xmlns:xlink="http://www.w3.org/1999/xlink" x="0px" y="0px"
	 viewBox="0 0 2353.6 355.6" style="enable-background:new 0 0 2353.6 355.6;" xml:space="preserve">
<style type="text/css">
	.st0{fill:#3F3D56;}
	.st1{fill:#FFC964;}
</style>
<title>logo</title>
<g>
	<path class="st0" d="M144.6,188.5c0-15.1-11.3-22.2-28.3-22.2c-19.8,0-38.7,9.9-52.4,21.2L9.6,133.8c29.7-28.8,74.1-45.3,118-45.3
		C222,88.5,247,145.6,247,215.4v130.7h-98.6v-19.8h-0.9c-12.3,18.9-39.2,26.4-60.9,26.4C47.8,352.8,0.2,332,0.2,273
		c0-69.4,78.8-83.5,144.4-83.5V188.5z M145.5,243.3c-32.1,0-53.3,5.7-53.3,24.5c0,13.7,14.6,19.3,25,19.3
		c20.8,0,34.5-14.6,34.5-35.4v-8.5H145.5z"/>
	<path class="st0" d="M272.9,97.9h104.8v28.3h0.9c10.9-19.8,32.6-34.9,60.9-34.9c8,0,16,0.9,20.8,2.4l-8.5,92.5
		c-6.6-1.9-16-2.8-23.1-2.8c-28.3,0-46.7,18.9-46.7,42.5v120.3h-109V97.9z"/>
	<path class="st0" d="M506.1,264.5v-88.7h-34.9V97.9h34.5V42.3h105.7v55.7h53.8v77.9h-53.8v66.1c0,24.1,10.9,30.7,29.3,30.7
		c7.1,0,15.6-1.4,19.8-2.8v74.6c-11.3,4.7-33.5,8.5-56.2,8.5C538.1,352.8,506.1,324.5,506.1,264.5z"/>
	<path class="st0" d="M953,247.5H785.9c1.9,17.5,22.7,28.3,42.5,28.3s34-9,40.6-17.5l77.4,39.2c-21.7,35.4-65.6,58-120.8,58
		c-72.2,0-140.6-45.8-140.6-133.6c0-82.1,61.8-133.6,138.3-133.6c77.9,0,130.7,57.6,130.7,135.9C953.9,232.4,953.4,241.9,953,247.5z
		 M773.2,70.6l52.4-68h100l-72.7,68H773.2z M860,189c0-17.5-14.2-30.2-35.9-30.2c-24.1,0-37.3,16.5-39.2,30.2H860z"/>
</g>
<g>
	<path class="st1" d="M1357,204.6v141.6h-56.6V220.6c0-26.9-6.1-60.4-42.5-60.4c-35.4,0-50,33-50,62.3v123.6h-56.6V209.3
		c0-27.8-13.2-49.1-42-49.1c-34,0-49.6,31.1-49.6,61.3v124.6h-56.6V119.6h53.8V156h0.9c9.9-22.2,34-42.9,70.3-42.9
		c34.9,0,58,17.5,70.8,42.9c15.1-27.4,40.6-42.9,74.6-42.9C1332.5,113,1357,158.3,1357,204.6z"/>
	<path class="st1" d="M1592,346.2h-53.8v-36.3h-0.9c-9.9,22.7-36.8,42.9-70.3,42.9c-59,0-83.5-45.3-83.5-91.6V119.6h56.6v125.5
		c0,26.9,6.1,60.4,42.5,60.4c35.9,0,52.9-31.1,52.9-61.4V119.6h56.6V346.2z"/>
	<path class="st1" d="M1765.2,180.1c-9.9-13.2-28.8-24.5-49.6-24.5c-17.9,0-36.3,6.6-36.3,24.5c0,17.5,17.5,22.2,49.1,29.7
		c33.5,8,73.1,23.1,73.1,67.5c0,55.2-44.8,75.5-94.4,75.5c-34.9,0-71.3-13.2-93-37.3l37.3-34.9c12.3,16,33.5,28.3,58,28.3
		c16.5,0,36.3-6.6,36.3-26.9c0-18.9-17.5-24.5-51.9-32.6c-33.5-8-67-21.7-67-64.2c0-50.5,45.3-72.2,90.1-72.2
		c32.6,0,66.5,11.3,84.9,34.5L1765.2,180.1z"/>
	<path class="st1" d="M1860.5,8.7c20.8,0,36.8,14.6,36.8,34c0,19.3-16,34-36.8,34s-35.9-16-35.9-34
		C1824.7,24.8,1839.8,8.7,1860.5,8.7z M1832.7,119.6h56.6v226.5h-56.6V119.6z"/>
	<path class="st1" d="M2084.7,182.4c-9-12.7-28.3-22.2-46.7-22.2c-41.5,0-62.3,37.3-62.3,72.7s21.2,72.7,64.2,72.7
		c17.5,0,36.8-7.1,47.7-20.3l35.4,35.9c-18.9,20.3-50,31.6-83.5,31.6c-67,0-122.7-44.4-122.7-119.9c0-73.6,54.7-119.9,121.3-119.9
		c33,0,67.5,13.2,85.4,35.4L2084.7,182.4z"/>
	<path class="st1" d="M2300.8,317.4h-1.4c-11.3,19.8-38.2,34.5-70.3,34.5c-36.3,0-84.9-17.5-84.9-70.3c0-67.5,84.9-76.9,155.7-76.9
		v-5.7c0-27.8-23.6-41.5-51.9-41.5c-24.1,0-47.2,11.3-61.8,26l-29.3-34.5c25.5-23.6,61.4-35.9,95.8-35.9c81.2,0,101,50,101,95.3
		v137.8h-52.9V317.4z M2299.9,242.8h-12.7c-35.9,0-86.4,4.2-86.4,37.8c0,21.7,20.3,28.3,39.6,28.3c38.7,0,59.5-22.2,59.5-58V242.8z"
		/>
</g>
</svg>
