<?xml version="1.0" encoding="utf-8"?>
<!-- Generator: Adobe Illustrator 23.0.2, SVG Export Plug-In . SVG Version: 6.00 Build 0)  -->
<svg version="1.1" id="color" xmlns="http://www.w3.org/2000/svg" xmlns:xlink="http://www.w3.org/1999/xlink" x="0px" y="0px"
	 viewBox="0 0 512 512" style="enable-background:new 0 0 512 512;" xml:space="preserve">
<style type="text/css">
	.st0{fill:#FFCA63;}
</style>
<g>
	<path class="st0" d="M256,10.4c1.9,0,4.5,0.7,5.4,2.7L332,163.3l2.3,4.8l5.3,0.8l157.4,24c3.3,0.5,4.4,3,4.8,4
		c0.4,1.1,0.9,3.7-1.4,6.1L385.9,320.4l-3.5,3.6l0.8,5l27,165.7c0.3,1.8-0.1,3.4-1.3,4.8c-1.2,1.4-2.9,2.2-4.7,2.2
		c-1,0-1.9-0.3-2.9-0.8l-140.6-77.7l-4.8-2.7l-4.8,2.7l-140.6,77.7c-0.9,0.5-1.9,0.8-2.8,0.8c-1.7,0-3.5-0.8-4.7-2.2
		c-0.8-0.9-1.7-2.5-1.3-4.8l27-165.7l0.8-5l-3.5-3.6L11.7,203.1c-2.3-2.4-1.7-5.1-1.4-6.1c0.3-1,1.5-3.5,4.8-4l157.4-24l5.3-0.8
		l2.3-4.8l70.5-150.3C251.5,11.1,254.1,10.4,256,10.4 M256,0.4c-5.9,0-11.8,2.8-14.5,8.4L171,159.1l-157.4,24
		c-12.9,2-18.1,17.7-9,27l114.3,117.2L91.9,493c-1.7,10.3,6.6,18.6,15.8,18.6c2.6,0,5.2-0.6,7.7-2L256,431.9l140.6,77.7
		c2.5,1.4,5.1,2,7.7,2c9.2,0,17.5-8.2,15.8-18.6l-27-165.7l114.3-117.2c9.1-9.3,3.9-25-9-27v0l-157.4-24L270.5,8.8
		C267.8,3.2,261.9,0.4,256,0.4L256,0.4z"/>
</g>
</svg>
