<svg xmlns="http://www.w3.org/2000/svg" xmlns:xlink="http://www.w3.org/1999/xlink" width="404.031" height="297.328" viewBox="0 0 404.031 297.328"><defs><linearGradient id="a" x1="0.5" y1="1" x2="0.5" gradientUnits="objectBoundingBox"><stop offset="0" stop-color="gray" stop-opacity="0.251"/><stop offset="0.54" stop-color="gray" stop-opacity="0.122"/><stop offset="1" stop-color="gray" stop-opacity="0.102"/></linearGradient></defs><path d="M269.75,78.807c-25.9-.9-50.573-9.264-74.129-18.411s-46.894-19.283-72.173-24.131c-16.262-3.118-34.858-3.551-47.959,5.16-12.611,8.388-16.684,22.884-18.872,36.31C54.97,87.846,54,98.473,58.513,107.951c3.136,6.568,8.7,12.093,12.554,18.386,13.39,21.9,3.933,48.91-10.591,70.292-6.794,10.033-14.706,19.6-19.959,30.281s-7.684,22.912-3.089,33.8c4.559,10.8,15.414,18.908,27.174,24.611,23.888,11.585,52.039,14.9,79.488,16.78,60.767,4.141,121.855,2.353,182.779.565,22.548-.669,45.192-1.344,67.374-4.831,12.314-1.934,25.029-5.006,33.968-12.425,11.352-9.418,14.166-25.365,6.558-37.186-12.758-19.805-48.038-24.725-56.955-45.982-4.909-11.7.132-24.732,7.266-35.584,15.3-23.28,40.954-43.7,42.306-70.31.93-18.275-11.4-36.578-30.467-45.224-19.987-9.064-47.7-7.923-62.444,7.08C319.3,73.658,292.62,79.6,269.75,78.807Z" transform="translate(-35.001 -34.225)" fill="#ffca63" opacity="0.1"/><path d="M538.9,698.07l-69.724-.894.2-1.788,3.372-29.5h61.231l4.505,29.5.343,2.235Z" transform="translate(-301.422 -427.799)" fill="#d0d2d5"/><path d="M538.836,750.625H504.042l-34.862-.447.2-1.788h69.109Z" transform="translate(-301.422 -480.8)" opacity="0.1"/><rect width="92.518" height="2.235" transform="translate(156.137 268.037)" fill="#d0d2d5"/><path d="M492.255,194.086a5.817,5.817,0,0,0-5.789-5.846H228.092a5.817,5.817,0,0,0-5.792,5.846V350.7H492.255Z" transform="translate(-155.33 -133.171)" fill="#444053"/><path d="M222.3,638.24v18.343a5.792,5.792,0,0,0,5.792,5.792H486.466a5.792,5.792,0,0,0,5.789-5.792V638.24Z" transform="translate(-155.33 -422.271)" fill="#d0d2d5"/><rect width="248.948" height="140.788" transform="translate(78.144 64.902)" fill="#ffca63" opacity="0.1"/><path d="M592.735,664.643a6.039,6.039,0,0,0,4.748-2.3h0a6.187,6.187,0,0,0,.468-.69l-3.311-.543,3.576.029a6.025,6.025,0,0,0,.114-4.784l-4.8,2.5,4.43-3.254a6.032,6.032,0,1,0-9.965,6.751h0A6.032,6.032,0,0,0,592.735,664.643Z" transform="translate(-389.447 -431.5)" fill="#ffca63"/><path d="M585.43,671.52l27.814,27.932-4.266-27.932Z" transform="translate(-376.106 -431.416)" opacity="0.1"/><rect width="163.403" height="97.97" rx="2.6" transform="translate(85.456 90.303)" fill="#fff"/><rect width="248.859" height="8.224" transform="translate(78.305 64.916)" fill="#fff"/><rect width="7.151" height="5.006" rx="0.78" transform="translate(79.377 66.346)" fill="#ffca63"/><rect width="75.087" height="5.006" rx="0.58" transform="translate(164.476 66.346)" fill="#ffca63" opacity="0.3"/><path d="M693.643,223.729h-.182l-.068-.057a1.52,1.52,0,0,0,.358-.973,1.48,1.48,0,1,0-1.477,1.491,1.527,1.527,0,0,0,.973-.358l.068.057v.186l1.144,1.144.358-.358Zm-1.373,0a1.033,1.033,0,1,1,1.03-1.03,1.023,1.023,0,0,1-1.03,1.03Z" transform="translate(-456.309 -154.365)" fill="#444053"/><circle cx="2.503" cy="2.503" r="2.503" transform="translate(321.085 66.346)" fill="#ffca63"/><rect width="23.241" height="15.732" rx="2.43" transform="translate(260.658 82.079)" fill="#fff"/><rect width="30.035" height="2.503" rx="0.61" transform="translate(289.978 82.079)" fill="#fff"/><rect width="30.035" height="2.503" rx="0.61" transform="translate(289.978 87.442)" fill="#fff"/><rect width="30.035" height="2.503" rx="0.61" transform="translate(289.978 92.805)" fill="#fff"/><rect width="23.241" height="15.732" rx="2.43" transform="translate(260.658 106.75)" fill="#fff"/><rect width="30.035" height="2.503" rx="0.61" transform="translate(289.978 106.75)" fill="#fff"/><rect width="30.035" height="2.503" rx="0.61" transform="translate(289.978 112.114)" fill="#fff"/><rect width="30.035" height="2.503" rx="0.66" transform="translate(289.978 117.477)" fill="#fff"/><rect width="23.241" height="15.732" rx="2.43" transform="translate(260.658 131.422)" fill="#fff"/><rect width="30.035" height="2.503" rx="0.66" transform="translate(289.978 131.422)" fill="#fff"/><rect width="30.035" height="2.503" rx="0.66" transform="translate(289.978 136.785)" fill="#fff"/><rect width="30.035" height="2.503" rx="0.66" transform="translate(289.978 142.148)" fill="#fff"/><rect width="23.241" height="15.732" rx="2.43" transform="translate(260.658 156.093)" fill="#fff"/><rect width="30.035" height="2.503" rx="0.66" transform="translate(289.978 156.093)" fill="#fff"/><rect width="30.035" height="2.503" rx="0.66" transform="translate(289.978 161.456)" fill="#fff"/><rect width="30.035" height="2.503" rx="0.66" transform="translate(289.978 166.82)" fill="#fff"/><rect width="23.241" height="15.732" rx="2.43" transform="translate(260.658 180.764)" fill="#fff"/><rect width="30.035" height="2.503" rx="0.66" transform="translate(289.978 180.764)" fill="#fff"/><rect width="30.035" height="2.503" rx="0.66" transform="translate(289.978 186.128)" fill="#fff"/><rect width="30.035" height="2.503" rx="0.66" transform="translate(289.978 191.491)" fill="#fff"/><rect width="36.768" height="1.906" transform="translate(109.026 116.265)" fill="#ffca63" opacity="0.1"/><rect width="3.54" height="10.076" transform="translate(112.294 106.189)" fill="#ffca63" opacity="0.1"/><rect width="3.54" height="10.076" transform="translate(117.468 106.189)" fill="#ffca63" opacity="0.1"/><rect width="3.54" height="10.076" transform="translate(122.642 106.189)" fill="#ffca63" opacity="0.1"/><rect width="3.54" height="10.076" transform="translate(127.815 106.189)" fill="#ffca63" opacity="0.1"/><rect width="3.54" height="10.076" transform="translate(132.989 106.189)" fill="#ffca63" opacity="0.1"/><rect width="3.54" height="10.076" transform="translate(138.167 106.189)" fill="#ffca63" opacity="0.1"/><rect width="3.54" height="1.091" transform="translate(112.294 108.095)" fill="#ffca63" opacity="0.1"/><rect width="3.54" height="1.091" transform="translate(117.468 108.095)" fill="#ffca63" opacity="0.1"/><rect width="3.54" height="1.091" transform="translate(122.642 108.095)" fill="#ffca63" opacity="0.1"/><rect width="3.54" height="1.091" transform="translate(127.815 108.095)" fill="#ffca63" opacity="0.1"/><rect width="3.54" height="1.091" transform="translate(132.989 108.095)" fill="#ffca63" opacity="0.1"/><rect width="3.54" height="1.091" transform="translate(138.167 108.095)" fill="#ffca63" opacity="0.1"/><rect width="3.54" height="1.091" transform="translate(112.294 112.997)" fill="#ffca63" opacity="0.1"/><rect width="3.54" height="1.091" transform="translate(117.468 112.997)" fill="#ffca63" opacity="0.1"/><rect width="3.54" height="1.091" transform="translate(122.642 112.997)" fill="#ffca63" opacity="0.1"/><rect width="3.54" height="1.091" transform="translate(127.815 112.997)" fill="#ffca63" opacity="0.1"/><rect width="3.54" height="1.091" transform="translate(132.989 112.997)" fill="#ffca63" opacity="0.1"/><rect width="3.54" height="1.091" transform="translate(138.167 112.997)" fill="#ffca63" opacity="0.1"/><rect width="36.768" height="1.906" transform="translate(189.637 121.167)" fill="#ffca63" opacity="0.1"/><rect width="3.54" height="10.076" transform="translate(192.905 111.091)" fill="#ffca63" opacity="0.1"/><rect width="3.54" height="10.076" transform="translate(198.079 111.091)" fill="#ffca63" opacity="0.1"/><rect width="3.54" height="10.076" transform="translate(203.253 111.091)" fill="#ffca63" opacity="0.1"/><rect width="3.54" height="10.076" transform="translate(208.43 111.091)" fill="#ffca63" opacity="0.1"/><rect width="3.54" height="10.076" transform="translate(213.604 111.091)" fill="#ffca63" opacity="0.1"/><rect width="3.54" height="10.076" transform="translate(218.778 111.091)" fill="#ffca63" opacity="0.1"/><rect width="3.54" height="1.091" transform="translate(192.905 112.997)" fill="#ffca63" opacity="0.1"/><rect width="3.54" height="1.091" transform="translate(198.079 112.997)" fill="#ffca63" opacity="0.1"/><rect width="3.54" height="1.091" transform="translate(203.253 112.997)" fill="#ffca63" opacity="0.1"/><rect width="3.54" height="1.091" transform="translate(208.43 112.997)" fill="#ffca63" opacity="0.1"/><rect width="3.54" height="1.091" transform="translate(213.604 112.997)" fill="#ffca63" opacity="0.1"/><rect width="3.54" height="1.091" transform="translate(218.778 112.997)" fill="#ffca63" opacity="0.1"/><rect width="3.54" height="1.091" transform="translate(192.905 117.899)" fill="#ffca63" opacity="0.1"/><rect width="3.54" height="1.091" transform="translate(198.079 117.899)" fill="#ffca63" opacity="0.1"/><rect width="3.54" height="1.091" transform="translate(203.253 117.899)" fill="#ffca63" opacity="0.1"/><rect width="3.54" height="1.091" transform="translate(208.43 117.899)" fill="#ffca63" opacity="0.1"/><rect width="3.54" height="1.091" transform="translate(213.604 117.899)" fill="#ffca63" opacity="0.1"/><rect width="3.54" height="1.091" transform="translate(218.778 117.899)" fill="#ffca63" opacity="0.1"/><rect width="36.768" height="1.906" transform="translate(189.637 135.054)" fill="#ffca63" opacity="0.1"/><rect width="3.54" height="10.076" transform="translate(192.905 124.978)" fill="#ffca63" opacity="0.1"/><rect width="3.54" height="10.076" transform="translate(198.079 124.978)" fill="#ffca63" opacity="0.1"/><rect width="3.54" height="10.076" transform="translate(203.253 124.978)" fill="#ffca63" opacity="0.1"/><rect width="3.54" height="10.076" transform="translate(208.43 124.978)" fill="#ffca63" opacity="0.1"/><rect width="3.54" height="10.076" transform="translate(213.604 124.978)" fill="#ffca63" opacity="0.1"/><rect width="3.54" height="10.076" transform="translate(218.778 124.978)" fill="#ffca63" opacity="0.1"/><rect width="3.54" height="1.091" transform="translate(192.905 126.884)" fill="#ffca63" opacity="0.1"/><rect width="3.54" height="1.091" transform="translate(198.079 126.884)" fill="#ffca63" opacity="0.1"/><rect width="3.54" height="1.091" transform="translate(203.253 126.884)" fill="#ffca63" opacity="0.1"/><rect width="3.54" height="1.091" transform="translate(208.43 126.884)" fill="#ffca63" opacity="0.1"/><rect width="3.54" height="1.091" transform="translate(213.604 126.884)" fill="#ffca63" opacity="0.1"/><rect width="3.54" height="1.091" transform="translate(218.778 126.884)" fill="#ffca63" opacity="0.1"/><rect width="3.54" height="1.091" transform="translate(192.905 131.786)" fill="#ffca63" opacity="0.1"/><rect width="3.54" height="1.091" transform="translate(198.079 131.786)" fill="#ffca63" opacity="0.1"/><rect width="3.54" height="1.091" transform="translate(203.253 131.786)" fill="#ffca63" opacity="0.1"/><rect width="3.54" height="1.091" transform="translate(208.43 131.786)" fill="#ffca63" opacity="0.1"/><rect width="3.54" height="1.091" transform="translate(213.604 131.786)" fill="#ffca63" opacity="0.1"/><rect width="3.54" height="1.091" transform="translate(218.778 131.786)" fill="#ffca63" opacity="0.1"/><path d="M399.274,391.489a10.165,10.165,0,0,1-.751-1.1l5.3-.869-5.721.043a9.676,9.676,0,0,1-.186-7.645l7.67,3.976-7.083-5.206a9.654,9.654,0,1,1,15.936,10.8,9.388,9.388,0,0,1,1.1,1.759l-6.872,3.576,7.326-2.456a9.654,9.654,0,0,1-1.555,9.05,9.654,9.654,0,1,1-15.16,0,9.654,9.654,0,0,1,0-11.932Z" transform="translate(-267.693 -253.674)" fill="#ffca63" opacity="0.1"/><path d="M416.5,436.084a9.615,9.615,0,0,1-2.068,5.958,9.654,9.654,0,1,1-15.16,0C397.974,440.407,416.5,435,416.5,436.084Z" transform="translate(-267.692 -292.306)" fill="#ffca63" opacity="0.1"/><path d="M422.044,498.94a.894.894,0,0,1,.047.079h-3.275c.018-.025.029-.054.046-.079a3.171,3.171,0,0,1-.422-1.613,3.311,3.311,0,0,1,.2-1.137h0c.182.029.408.061.669.089a11.487,11.487,0,0,0,2.285,0q.329-.032.676-.086a.033.033,0,0,0,0,.018,3.216,3.216,0,0,1,.193,1.119A3.171,3.171,0,0,1,422.044,498.94Z" transform="translate(-281.339 -331.012)" fill="#3f3d56" opacity="0.2"/><path d="M349.213,439.954H330.978c-.039-.1-.075-.215-.107-.322a9.6,9.6,0,0,1,.211-6.307,9.654,9.654,0,0,1-3.522-11.4,9.241,9.241,0,0,1-1.041-.833l4.8-2.392-5.456,1.731a9.654,9.654,0,0,1-2.431-7.248l8.513,1.537-8.3-2.885a9.654,9.654,0,1,1,18.411,5.614,9.782,9.782,0,0,1,1.584,1.377l-5.514,5.438,6.275-4.512a9.654,9.654,0,0,1,1.187,9.118A9.654,9.654,0,0,1,349.213,439.954Z" transform="translate(-220.279 -271.948)" fill="#ffca63" opacity="0.1"/><path d="M361.865,472.679H343.629c-.039-.1-.075-.215-.107-.322a9.6,9.6,0,0,1,.211-6.307c-1.716-1.187,14.385-11.824,14.7-10.787a9.611,9.611,0,0,1-.211,6.311A9.654,9.654,0,0,1,361.865,472.679Z" transform="translate(-232.93 -304.672)" fill="#ffca63" opacity="0.1"/><path d="M572.552,441.338a9.619,9.619,0,0,1-4.831,4.062,9.8,9.8,0,0,1,.039,2.074l-7.727-.465,7.548,1.638a9.653,9.653,0,0,1-1.151,2.918,9.5,9.5,0,0,1-2.574,2.825H553.337v.275H542.61c.021-.093.043-.182.068-.275a9.654,9.654,0,0,1,5.882-6.547,9.654,9.654,0,0,1,6.125-10.24,9.8,9.8,0,0,1-.079-1.334l4.988,1.97-4.934-2.9a9.654,9.654,0,0,1,3.787-6.643l4.544,7.358-3.407-8.1a9.654,9.654,0,0,1,12.969,13.387Z" transform="translate(-361.111 -286.396)" fill="#ffca63" opacity="0.1"/><path d="M566.43,488.589a9.5,9.5,0,0,1-2.574,2.825H553.337v.275H542.61c.021-.093.043-.182.068-.275a9.654,9.654,0,0,1,5.882-6.547c-.089-.715,1.988-.608,4.759-.143C558.75,485.635,566.8,487.973,566.43,488.589Z" transform="translate(-361.111 -323.406)" fill="#ffca63" opacity="0.1"/><path d="M477.331,423.214s1.323,7.151-1.63,9.486,2.5,16.33,11.506,14.7,12.672-13.373,12.672-13.373-9.018-1.866-5.674-11.352Z" transform="translate(-317.608 -283.779)" fill="#ee8e9e"/><path d="M477.331,423.214s1.323,7.151-1.63,9.486,2.5,16.33,11.506,14.7,12.672-13.373,12.672-13.373-9.018-1.866-5.674-11.352Z" transform="translate(-317.608 -283.779)" opacity="0.1"/><circle cx="14.928" cy="14.928" r="14.928" transform="translate(152.766 114.827)" fill="#ee8e9e"/><path d="M484.043,457.313V467.46H434.75v-9.686a6.25,6.25,0,0,1,3.815-5.757l1.412-.6c3.576-1.523,7.92-3.415,9.339-4.2a2.34,2.34,0,0,0,.436-.282c.776-.776.622.232.622.232s-.021.193-.036.526c-.086,2.285.243,11.263,10.766,10.516,10.265-.715,10.727-7.659,10.623-9.7a5.538,5.538,0,0,0-.047-.565,13.269,13.269,0,0,1,2.077.679,43.564,43.564,0,0,1,6.161,2.667c.265.186.586.379.937.576a6.156,6.156,0,0,1,1.108.79A6.261,6.261,0,0,1,484.043,457.313Z" transform="translate(-291.817 -299.178)" fill="#ffca63"/><path d="M499.918,448.62c-.869,4.026-3.6,11.567-13.43,11.764-10.476.207-11.084-10.212-11.016-13.169a2.113,2.113,0,0,0,.44-.282c.779-.776.622.232.622.232s-1.319,11.9,10.727,11.041,10.566-10.262,10.566-10.262A14.675,14.675,0,0,1,499.918,448.62Z" transform="translate(-317.976 -299.178)" opacity="0.1"/><path d="M452.765,355.4a2.556,2.556,0,0,1,2.692.983,4.88,4.88,0,0,1,.694,2.56c.647.136,1.012-.6,1.073-1.151a29.63,29.63,0,0,1,1.015-6.736,8.042,8.042,0,0,1,4.956-5.124,5.75,5.75,0,0,1,2.707-.257c.54.089,1.048.279,1.584.358,1.859.307,3.88-.572,5.621.039a4.482,4.482,0,0,1,2.3,2.167,4.676,4.676,0,0,0,.894,1.3,6.191,6.191,0,0,0,2.961,1.044,3.819,3.819,0,0,1,2.674,1.387,3.626,3.626,0,0,1-.029,2.4,5.871,5.871,0,0,0,.6,3.708c.2.358.6.79,1.073.672a.94.94,0,0,0,.508-.411c1.219-1.709,1.187-3.933,2.717-5.474.511-.515,1.173-.915,1.67-1.43a3.247,3.247,0,0,0,.865-2.946,9.675,9.675,0,0,0-1.981-3.182,12.512,12.512,0,0,1-2.12-4.4.8.8,0,0,1,0-.576,1.533,1.533,0,0,1,.543-.443,2.052,2.052,0,0,0,.694-2.621,4.37,4.37,0,0,0-2.456-1.956,16.019,16.019,0,0,0-3.35-.715,1.822,1.822,0,0,1-1.863-.919c-.1-.268-.1-.558-.207-.826a1.9,1.9,0,0,0-1.43-1,4.184,4.184,0,0,0-1.913.136c-.715.2-1.527.5-2.145.15-.325-.182-.5-.515-.855-.665-.715-.3-1.452.307-1.963.808a4.777,4.777,0,0,1-1.77,1.191,2.635,2.635,0,0,1-2.2-.147,6.926,6.926,0,0,1-1.126-1.209,4.24,4.24,0,0,0-2.664-1.073,9.378,9.378,0,0,0-3.007.329,18.158,18.158,0,0,0-5.281,2.217,5.675,5.675,0,0,0-2.027,1.884,4.291,4.291,0,0,0-.454,1.942,7.007,7.007,0,0,0,2.449,5.817,3.45,3.45,0,0,0-1.752,2.617,14.326,14.326,0,0,0-.679,4.9,10.763,10.763,0,0,1,.186,2.549,5.494,5.494,0,0,0-.164,1.219A1.169,1.169,0,0,0,452.765,355.4Z" transform="translate(-302.742 -224.901)" fill="#454b69"/><g transform="translate(149.036 111.506)" opacity="0.1"><path d="M543.124,378a3.49,3.49,0,0,1-.644.951c-.5.522-1.158.926-1.67,1.43-1.53,1.53-1.5,3.769-2.717,5.478a.919.919,0,0,1-.508.408c-.465.122-.865-.3-1.073-.672a6.143,6.143,0,0,1-.533-1.43l-.072.357a5.872,5.872,0,0,0,.6,3.708c.2.357.6.79,1.073.672a.94.94,0,0,0,.508-.411c1.219-1.709,1.187-3.933,2.717-5.474.511-.515,1.173-.915,1.67-1.43a3.247,3.247,0,0,0,.865-2.946A3.838,3.838,0,0,0,543.124,378Z" transform="translate(-505.791 -366.587)"/><path d="M545.837,347.693a1.5,1.5,0,0,0-.544.443.791.791,0,0,0,0,.572,12.093,12.093,0,0,0,.54,1.63h0a2.052,2.052,0,0,0,.694-2.621,2.494,2.494,0,0,0-.25-.418A2.059,2.059,0,0,1,545.837,347.693Z" transform="translate(-511.837 -346.864)"/><path d="M454.291,350.224a6.629,6.629,0,0,1-2.342-4.144,5.587,5.587,0,0,0-.107.973,7.444,7.444,0,0,0,1.176,4.423A2.5,2.5,0,0,1,454.291,350.224Z" transform="translate(-451.827 -346.08)"/><path d="M482.07,373.221a3.626,3.626,0,0,0,.029-2.4,3.805,3.805,0,0,0-2.674-1.387,6.23,6.23,0,0,1-2.961-1.044,4.679,4.679,0,0,1-.894-1.3,4.427,4.427,0,0,0-2.3-2.167c-1.741-.611-3.761.265-5.621-.039-.536-.089-1.044-.275-1.584-.358a5.721,5.721,0,0,0-2.707.257,8.058,8.058,0,0,0-4.956,5.124,29.567,29.567,0,0,0-1.015,6.736c-.061.551-.425,1.287-1.073,1.151a4.918,4.918,0,0,0-.694-2.564,2.557,2.557,0,0,0-2.692-.98,1.309,1.309,0,0,1-.754-.483,4.144,4.144,0,0,1,0,.987,5.49,5.49,0,0,0-.164,1.219,1.169,1.169,0,0,0,.933.919,2.556,2.556,0,0,1,2.692.983,4.879,4.879,0,0,1,.694,2.56c.647.136,1.012-.6,1.073-1.151a29.627,29.627,0,0,1,1.016-6.736,8.041,8.041,0,0,1,4.956-5.124,5.749,5.749,0,0,1,2.707-.257c.54.089,1.048.279,1.584.358,1.859.307,3.879-.572,5.621.039a4.482,4.482,0,0,1,2.3,2.167,4.675,4.675,0,0,0,.894,1.3,6.192,6.192,0,0,0,2.961,1.044,3.909,3.909,0,0,1,2.621,1.3A.308.308,0,0,1,482.07,373.221Z" transform="translate(-451.942 -357.896)"/><path d="M452.038,382.252a6.793,6.793,0,0,0-.118-1.992,8.878,8.878,0,0,0-.068,2.088,3.8,3.8,0,0,0,.064.533C451.956,382.67,452.009,382.462,452.038,382.252Z" transform="translate(-451.819 -368.039)"/></g><path d="M403.49,533.293v-6.454a.182.182,0,0,1,.182-.182h.733a.182.182,0,0,1,.182.182v2.685l2.975-2.757a.486.486,0,0,1,.8.358v5.846a.486.486,0,0,1-.8.358l-2.975-2.739v2.671a.182.182,0,0,1-.182.182h-.733A.183.183,0,0,1,403.49,533.293Z" transform="translate(-271.734 -350.583)" fill="#444053"/><path d="M595.789,526.86v6.454a.183.183,0,0,1-.186.182h-.715a.182.182,0,0,1-.182-.182v-2.685l-2.975,2.753a.49.49,0,0,1-.8-.358v-5.867a.49.49,0,0,1,.8-.358l2.975,2.739v-2.667a.182.182,0,0,1,.182-.182h.715a.182.182,0,0,1,.186.172Z" transform="translate(-392.154 -350.604)" fill="#444053"/><path d="M496.71,533.832h-1.455a.715.715,0,0,1-.715-.715v-5.342a.715.715,0,0,1,.715-.715h1.455a.715.715,0,0,1,.715.715v5.342A.715.715,0,0,1,496.71,533.832Zm4.612-.715v-5.342a.715.715,0,0,0-.715-.715h-1.47a.715.715,0,0,0-.715.715v5.342a.715.715,0,0,0,.715.715h1.455a.715.715,0,0,0,.729-.715Z" transform="translate(-330.229 -350.844)" fill="#444053"/><rect width="85.813" height="0.955" transform="translate(124.787 167.556)" fill="#444053" opacity="0.6"/><circle cx="2.263" cy="2.263" r="2.263" transform="translate(149.022 165.768)" fill="#444053"/><rect width="26.498" height="0.955" transform="translate(124.787 167.556)" fill="#444053"/><ellipse cx="21.264" cy="4.09" rx="21.264" ry="4.09" transform="translate(320.946 267.128)" fill="#ffca63"/><ellipse cx="2.474" cy="3.239" rx="2.474" ry="3.239" transform="translate(339.381 266.242)" fill="#3f3d56"/><ellipse cx="2.474" cy="3.239" rx="2.474" ry="3.239" transform="translate(339.381 262.28)" fill="#3f3d56"/><ellipse cx="2.474" cy="3.239" rx="2.474" ry="3.239" transform="translate(339.381 258.322)" fill="#3f3d56"/><ellipse cx="2.474" cy="3.239" rx="2.474" ry="3.239" transform="translate(339.381 254.36)" fill="#3f3d56"/><ellipse cx="2.474" cy="3.239" rx="2.474" ry="3.239" transform="translate(339.381 250.398)" fill="#3f3d56"/><ellipse cx="2.474" cy="3.239" rx="2.474" ry="3.239" transform="translate(339.381 246.437)" fill="#3f3d56"/><ellipse cx="2.474" cy="3.239" rx="2.474" ry="3.239" transform="translate(339.381 242.475)" fill="#3f3d56"/><path d="M978.946,611.142a12.279,12.279,0,0,0,.922-1.359l-6.508-1.073,7.037.054a11.9,11.9,0,0,0,.225-9.4l-9.432,4.9,8.7-6.4a11.86,11.86,0,1,0-19.587,13.272,12.091,12.091,0,0,0-1.352,2.145l8.445,4.387-9-3.021a11.867,11.867,0,0,0,1.909,11.134,11.857,11.857,0,1,0,18.643,0,11.864,11.864,0,0,0,0-14.66Z" transform="translate(-627.826 -392.53)" fill="#ffca63"/><path d="M957.78,665.817a11.8,11.8,0,0,0,2.535,7.33,11.857,11.857,0,1,0,18.643,0C980.545,671.133,957.78,664.486,957.78,665.817Z" transform="translate(-627.834 -439.875)" opacity="0.1"/><ellipse cx="35.398" cy="7.509" rx="35.398" ry="7.509" transform="translate(68.293 282.31)" fill="#ffca63" opacity="0.1"/><path d="M306.4,588.471a9.318,9.318,0,0,0-2.228-.3,6.893,6.893,0,0,1-4.1-1.988,7.509,7.509,0,0,1-1.638-2.5c.236.086.472.175.715.272-.715-1.67.036-3.543.694-5.231q1.673-4.291,3.164-8.628c2.5-7.326,4.648-14.946,4.6-22.741,0-2.818-.518-5.481-.619-8.3-.075-2.088.247-4.173.232-6.264,0-.293,0-.583-.021-.876a5.553,5.553,0,0,0,1.884-4.527,10.891,10.891,0,0,0-.189-1.316,21.344,21.344,0,0,0-.5-2.238c-.236-.776-.558-1.52-.833-2.278-.533-1.47-.894-3-1.348-4.495a1.549,1.549,0,0,1,.486.132,1.049,1.049,0,0,1-.229-.469,11.586,11.586,0,0,1-.429-2.921l.3-.136a7.606,7.606,0,0,0-.147-2.893c.172-1.534.44-3.078.6-4.605.061-.572.036-1.291-.49-1.43-.107-.819-.15-1.648-.193-2.474q-.225-4.323-.447-8.642c-.15-2.893-.3-5.782-.358-8.678a25.329,25.329,0,0,0-.5-5.5,6.65,6.65,0,0,0-.254-2.5,5.129,5.129,0,0,0-4.827-3.658,9.6,9.6,0,0,0-2.285-2.31c.418-.937.919-1.9,1.33-2.66a8.669,8.669,0,0,0,5.807-8.331,9.094,9.094,0,0,0-.983-4.144,4.487,4.487,0,0,0,.157-.483,3.965,3.965,0,0,0-.161-2.32,6.79,6.79,0,0,0-.358-.83c-.093-.179-.193-.358-.3-.529l-.182-.275a5.137,5.137,0,0,0-.358-.486,11.829,11.829,0,0,0-.815-.98,8.073,8.073,0,0,0-1.173-1.044,5.17,5.17,0,0,0-1.931-.89,5.882,5.882,0,0,0-1.226-.111c-.247,0-.5,0-.744.021-.5.029-1,.064-1.495.061a3.308,3.308,0,0,1-.5-.025,18.118,18.118,0,0,1-2.589-.54l-.429-.089c-.147-.029-.29-.054-.436-.072a8.19,8.19,0,0,0-1.184-.071h-.4a10.964,10.964,0,0,0-1.184.122l-.393.061a11.3,11.3,0,0,0-2.878.855c-.118.054-.24.114-.358.179l-.072.039c-.1.05-.193.1-.286.161l-.054.032-.3.193-.025.018c-2.839,1.909-4.516,5.528-4.941,9.118-.476,4.03.358,8.091,1.191,12.057l.751,3.576c.032.161.068.318.1.479a7.867,7.867,0,0,0-2.356,3.268,13.951,13.951,0,0,0-.676,5.66c0,.393.022.787.061,1.18-.089.744-.168,1.491-.218,2.242-.225,3.468.2,6.954.086,10.43a76.366,76.366,0,0,0-.293,8.024,36.22,36.22,0,0,0,1.43,6.926l.9,3.247a.862.862,0,0,0,.225.447.68.68,0,0,0,.5.1,30.42,30.42,0,0,0-1.466,4.1,12.7,12.7,0,0,0-.529,2.639,16.121,16.121,0,0,0,.64,4.856q.858,3.576,1.709,7.18.6,2.521,1.2,5.038a53.686,53.686,0,0,1,1.723,10.051,21.825,21.825,0,0,1-.358,5.109,44.523,44.523,0,0,0-.443,15.314,75.091,75.091,0,0,0,2.893,12.661c.29-.154.583-.3.883-.429l-.125.232q-.619,1.073-1.144,2.2a12.508,12.508,0,0,0-.611,1.505,16.943,16.943,0,0,0-.594,4.459,2.18,2.18,0,0,0,.075.862,1.79,1.79,0,0,0,1.287.965,11.759,11.759,0,0,0,4.755.075.577.577,0,0,0,.032.1,1.784,1.784,0,0,0,1.287.965c2.21.629,4.541.036,6.819-.179s4.516-.057,6.708-.583a3.2,3.2,0,0,0,.93-.358,3.043,3.043,0,0,0,1.173-1.627,2.083,2.083,0,0,0,.136-.533A1.812,1.812,0,0,0,306.4,588.471Zm-7.562-33.113a9.011,9.011,0,0,1-.715,2.424,46.268,46.268,0,0,0-3.668,11.5,53.333,53.333,0,0,0-.812,7.956c-.036,1.967.039,4.026-.779,5.792l.3-.047c-.093.172-.182.358-.268.493l-.043.079a7.753,7.753,0,0,1-.976-2.739c0-.032-.161-.057-.408-.071a73.988,73.988,0,0,1-1.044-17.123,7.926,7.926,0,0,1,.286-2.056c.182-.576.49-1.1.715-1.659a12.188,12.188,0,0,0,.715-2.911,41.352,41.352,0,0,0,.451-7.695,31.921,31.921,0,0,1,.955-7.258c.229-1.148.44-2.3.554-3.45l.021-.232a34.636,34.636,0,0,1,4.391,11.4,16.3,16.3,0,0,1,.329,5.6Zm-15.3-51.674.114.1a7.868,7.868,0,0,1,.951,1,1.32,1.32,0,0,1,.3.551c.107.522-.325.965-.679,1.348a6.084,6.084,0,0,0-.433.522q-.114-1.759-.243-3.518Z" transform="translate(-190.851 -299.524)" fill="url(#a)"/><path d="M278.552,542.53l-.393,3.036c-.132,1.03-.265,2.056-.336,3.089-.24,3.44.2,6.894.089,10.341a71.278,71.278,0,0,0-.311,7.952,33.715,33.715,0,0,0,1.513,6.865l.944,3.218a.851.851,0,0,0,.236.443.834.834,0,0,0,.6.1l4.191-.379c-.268-1.23-.565-2.5-.715-3.765-.115-.987-.182-1.981-.254-2.975-.222-3.1-.476-6.193-.715-9.3l-.447-5.435a41,41,0,0,0-.98-7.022A13.978,13.978,0,0,0,278.552,542.53Z" transform="translate(-190.823 -360.782)" fill="#ffca63"/><path d="M278.552,542.53l-.393,3.036c-.132,1.03-.265,2.056-.336,3.089-.24,3.44.2,6.894.089,10.341a71.278,71.278,0,0,0-.311,7.952,33.715,33.715,0,0,0,1.513,6.865l.944,3.218a.851.851,0,0,0,.236.443.834.834,0,0,0,.6.1l4.191-.379c-.268-1.23-.565-2.5-.715-3.765-.115-.987-.182-1.981-.254-2.975-.222-3.1-.476-6.193-.715-9.3l-.447-5.435a41,41,0,0,0-.98-7.022A13.978,13.978,0,0,0,278.552,542.53Z" transform="translate(-190.823 -360.782)" opacity="0.1"/><path d="M298.943,824.785a12.8,12.8,0,0,0-.644,1.495,16.091,16.091,0,0,0-.622,4.419,2.146,2.146,0,0,0,.079.855,1.863,1.863,0,0,0,1.355.955c2.321.626,4.766.039,7.151-.175s4.741-.057,7.044-.576a3.605,3.605,0,0,0,.976-.34,3.044,3.044,0,0,0,1.234-1.609,2.105,2.105,0,0,0,.139-.529,1.828,1.828,0,0,0-1.352-1.723,10.19,10.19,0,0,0-2.338-.3,7.366,7.366,0,0,1-6.522-6.153,16.19,16.19,0,0,0-4.291.154,3.587,3.587,0,0,0-1.026,1.348Q299.493,823.67,298.943,824.785Z" transform="translate(-203.747 -539.697)" fill="#a26565"/><path d="M298.943,824.785a12.8,12.8,0,0,0-.644,1.495,16.091,16.091,0,0,0-.622,4.419,2.146,2.146,0,0,0,.079.855,1.863,1.863,0,0,0,1.355.955c2.321.626,4.766.039,7.151-.175s4.741-.057,7.044-.576a3.605,3.605,0,0,0,.976-.34,3.044,3.044,0,0,0,1.234-1.609,2.105,2.105,0,0,0,.139-.529,1.828,1.828,0,0,0-1.352-1.723,10.19,10.19,0,0,0-2.338-.3,7.366,7.366,0,0,1-6.522-6.153,16.19,16.19,0,0,0-4.291.154,3.587,3.587,0,0,0-1.026,1.348Q299.493,823.67,298.943,824.785Z" transform="translate(-203.747 -539.697)" opacity="0.1"/><path d="M316.791,827.931a12.158,12.158,0,0,0-.644,1.491,15.918,15.918,0,0,0-.622,4.419,2.085,2.085,0,0,0,.079.855,1.864,1.864,0,0,0,1.352.958c2.321.622,4.77.036,7.151-.179s4.745-.057,7.044-.576a3.44,3.44,0,0,0,.976-.358,3.029,3.029,0,0,0,1.234-1.609,2.107,2.107,0,0,0,.139-.529,1.831,1.831,0,0,0-1.352-1.724,10.388,10.388,0,0,0-2.338-.3,7.369,7.369,0,0,1-6.522-6.15,16.176,16.176,0,0,0-4.291.15,3.56,3.56,0,0,0-1.03,1.348C317.56,826.458,317.159,827.188,316.791,827.931Z" transform="translate(-215.213 -541.706)" fill="#a26565"/><path d="M311.054,663.18c.05,7.727-2.2,15.278-4.831,22.526q-1.566,4.312-3.322,8.549c-.694,1.673-1.477,3.533-.733,5.185a12.55,12.55,0,0,0-6.583-.919c.858-1.752.776-3.79.815-5.721a50.176,50.176,0,0,1,.844-7.884,43.981,43.981,0,0,1,3.858-11.4,8.685,8.685,0,0,0,.747-2.4,15.348,15.348,0,0,0-.318-5.546,33.064,33.064,0,0,0-4.612-11.3l-.021.229a33.346,33.346,0,0,1-.579,3.422,29.929,29.929,0,0,0-1,7.194,38.911,38.911,0,0,1-.472,7.627,11.594,11.594,0,0,1-.769,2.882c-.247.554-.569,1.073-.762,1.648a7.509,7.509,0,0,0-.3,2.038,69.113,69.113,0,0,0,1.187,17.427,11.068,11.068,0,0,0-5.764,1.312A71,71,0,0,1,285.4,685.5a41.7,41.7,0,0,1,.465-15.182,20.175,20.175,0,0,0,.375-5.059,50.508,50.508,0,0,0-1.809-9.965l-1.259-5.006q-.894-3.576-1.788-7.119a15.135,15.135,0,0,1-.672-4.813,11.944,11.944,0,0,1,.558-2.617,29.21,29.21,0,0,1,3.958-8.1c6.89.386,13.862-.257,20.738-.787a1.391,1.391,0,0,1,.973.164,1.376,1.376,0,0,1,.393.887l2.585,14.66a36.837,36.837,0,0,1,.733,6.186c0,2.074-.322,4.141-.243,6.211C310.51,657.749,311.04,660.388,311.054,663.18Z" transform="translate(-192.839 -414.938)" fill="#454b69"/><path d="M311.107,683.605a33.369,33.369,0,0,1-.579,3.422c-1.5-2.592-3.114-5.12-4.494-7.777-.358-.683-.694-1.376-1.033-2.07l-1.019-2.074c-.19-.39-.379-.779-.551-1.176a8.5,8.5,0,0,1-.64-1.788c.5-.093,1.738,1.259,2.11,1.613a28.815,28.815,0,0,1,2.145,2.374,26.025,26.025,0,0,1,2.238,2.932A14.26,14.26,0,0,1,311.107,683.605Z" transform="translate(-207.04 -444.048)" opacity="0.1"/><path d="M314.848,499.658s-3.826,6.1-3.118,7.373-12.05-1.133-12.05-1.133,6.947-6.1,6.236-8.649S314.848,499.658,314.848,499.658Z" transform="translate(-205.042 -331.222)" fill="#efb7b9"/><circle cx="8.649" cy="8.649" r="8.649" transform="translate(97.756 152.982)" fill="#efb7b9"/><path d="M301.52,515.4a8.782,8.782,0,0,0-3.636-2.925,13.013,13.013,0,0,0-2.585-.636l-3.45-.608a4.4,4.4,0,0,0-2.535.057,4.154,4.154,0,0,0-1.073.79,14.3,14.3,0,0,1-3.865,2.975c-.411.175-.84.3-1.251.479a7.223,7.223,0,0,0-3.654,3.933,13.122,13.122,0,0,0-.715,5.607,9.856,9.856,0,0,0,.2,1.974,12.728,12.728,0,0,0,.654,1.809,33.1,33.1,0,0,1,1.194,3.836q1.341,5.131,2.231,10.369a3.887,3.887,0,0,0,.433,1.43,5.134,5.134,0,0,0,1.194,1.148,7.455,7.455,0,0,1,1,.99,1.294,1.294,0,0,1,.325.529c.111.515-.358.958-.715,1.334a6.458,6.458,0,0,0-1.616,2.814,1.133,1.133,0,0,0-.257.776,1.358,1.358,0,0,1,.082.615,1.389,1.389,0,0,1-.325.5,1.906,1.906,0,0,0-.358,1.53,24.272,24.272,0,0,0,8.467,1.981c.715.036,1.43.036,2.145.122.508.064,1.008.168,1.516.229a16.34,16.34,0,0,0,2.217.057c3.851-.079,7.813-.175,11.349-1.7.333-1.813-.386-3.661-.837-5.449-.715-2.86-.894-5.789-1.43-8.674-.358-1.97-.894-3.912-1.2-5.9a14.413,14.413,0,0,1,.172-5.971c.483-1.709.629-3.454,1.13-5.16a8.84,8.84,0,0,0,.286-5.242A5.39,5.39,0,0,0,301.52,515.4Z" transform="translate(-191.586 -340.574)" fill="#ffca63"/><path d="M307.4,458.885c.422-1.534-.408-3.132-1.394-4.38a7.418,7.418,0,0,0-4.116-2.885c-1.362-.275-2.775.057-4.162-.054-1.226-.1-2.406-.54-3.626-.715a11.482,11.482,0,0,0-3.318.125,12.6,12.6,0,0,0-3.021.844c-3.683,1.634-5.839,5.66-6.34,9.654s.375,8.02,1.248,11.949l.79,3.554a70.6,70.6,0,0,1,1.863,11.2,23.761,23.761,0,0,1-1.745,11.12,23.917,23.917,0,0,0,10.988-12.439c.558-1.462.973-2.982,1.595-4.419.533-1.237,1.216-2.41,1.688-3.672a11.928,11.928,0,0,0,.754-4.459c-.029-1.144-.218-2.281-.186-3.425a4.732,4.732,0,0,1,1.116-3.164,9.671,9.671,0,0,1,2.6-1.548,10.838,10.838,0,0,0,3.643-3.039,3.333,3.333,0,0,0,.744-1.917A24.291,24.291,0,0,1,307.4,458.885Z" transform="translate(-193.222 -301.841)" fill="#a26565"/><path d="M352.032,646.6a22.95,22.95,0,0,0,.122,2.671c.147.658.486,1.252.687,1.9a9.012,9.012,0,0,1,.3,2.278c.029.644-.021,1.43-.594,1.731-.25.132-.551.132-.812.247s-.483.425-.333.669.408.2.644.25.49.29.358.486a.408.408,0,0,1-.207.132,2.532,2.532,0,0,0-.672.322.687.687,0,0,0-.275.654.4.4,0,0,0,.576.265,1.787,1.787,0,0,0-.168.715,3.27,3.27,0,0,0,2.8-.618,10.567,10.567,0,0,0,1.073-.687,5.363,5.363,0,0,0,2.088-4.566,10.65,10.65,0,0,0-.2-1.305,19.649,19.649,0,0,0-.526-2.22c-.247-.769-.583-1.5-.872-2.256-.615-1.606-1.012-3.286-1.57-4.913a.744.744,0,0,0-.268-.426.754.754,0,0,0-.4-.075,6.506,6.506,0,0,0-1.863.172,1.981,1.981,0,0,0-1.137.715c-.168.358.1.658.261.955a8,8,0,0,1,.987,2.911Z" transform="translate(-237.839 -424.58)" fill="#efb7b9"/><path d="M338.192,533.64a2.621,2.621,0,0,1,.458.636c1.23,2.235,1.244,4.906,1.3,7.455.064,2.86.222,5.721.379,8.6l.468,8.581c.047.819.089,1.638.207,2.449.551.14.572.855.511,1.43-.4,3.5-1.38,7.1-.358,10.462a1.05,1.05,0,0,0,.24.465,2.793,2.793,0,0,0-1.6-.021c-.511.107-1,.3-1.52.415a3.227,3.227,0,0,0-1.831.715,35.475,35.475,0,0,1-1.2-4.62,17.789,17.789,0,0,0-.89-4.227c-.232-.533-.547-1.026-.833-1.537a33.624,33.624,0,0,1-2.953-8.678,12.668,12.668,0,0,1-.229-4.312,14.828,14.828,0,0,0,.179-1.984,15.235,15.235,0,0,0-.275-2.088,14,14,0,0,1,.418-6.046,16.324,16.324,0,0,1,2.145-5.267A7.2,7.2,0,0,1,338.192,533.64Z" transform="translate(-224.583 -355.071)" opacity="0.1"/><path d="M339.395,532.84a2.645,2.645,0,0,1,.458.64c1.23,2.231,1.244,4.906,1.3,7.455.064,2.861.222,5.721.379,8.581L342,558.1c.046.819.089,1.638.207,2.449.551.14.572.855.508,1.43-.393,3.5-1.377,7.094-.358,10.462a1.051,1.051,0,0,0,.24.465,2.791,2.791,0,0,0-1.6-.021c-.511.107-1,.3-1.52.411a3.253,3.253,0,0,0-1.831.715,35.126,35.126,0,0,1-1.187-4.641,17.752,17.752,0,0,0-.89-4.223,17.278,17.278,0,0,0-.833-1.538,33.511,33.511,0,0,1-2.953-8.681,12.663,12.663,0,0,1-.229-4.312,9.3,9.3,0,0,0-.1-4.073,13.98,13.98,0,0,1,.418-6.043,16.321,16.321,0,0,1,2.145-5.267A7.166,7.166,0,0,1,339.395,532.84Z" transform="translate(-225.36 -354.557)" fill="#ffca63"/><g transform="translate(90.361 148.944)" opacity="0.1"><path d="M314.984,454.505a7.418,7.418,0,0,0-4.116-2.885c-1.362-.275-2.775.057-4.162-.054-1.226-.1-2.406-.54-3.626-.715a11.482,11.482,0,0,0-3.318.125,12.6,12.6,0,0,0-3.021.844,8.972,8.972,0,0,0-1.491.847,12.721,12.721,0,0,1,2.671-.715,11.445,11.445,0,0,1,3.315-.125c1.223.157,2.4.6,3.629.694,1.384.111,2.8-.218,4.162.054a7.38,7.38,0,0,1,4.112,2.889c.99,1.244,1.816,2.843,1.4,4.38a24.453,24.453,0,0,0-.876,2.349,3.318,3.318,0,0,1-.747,1.917,10.863,10.863,0,0,1-2.624,2.442c.275-.129.558-.257.826-.4a10.836,10.836,0,0,0,3.643-3.039,3.333,3.333,0,0,0,.744-1.916,24.667,24.667,0,0,1,.876-2.349C316.8,457.352,315.97,455.753,314.984,454.505Z" transform="translate(-292.558 -450.785)"/><path d="M303.674,497.448a3.579,3.579,0,0,1,.483-.418,7.409,7.409,0,0,0-2.328,1.43,4.78,4.78,0,0,0-1.116,3.164c-.043,1.144.161,2.281.186,3.422a11.947,11.947,0,0,1-.754,4.462c-.472,1.262-1.155,2.431-1.688,3.672-.619,1.43-1.033,2.953-1.591,4.416a23.957,23.957,0,0,1-9.086,11.306c-.021.047-.039.1-.061.143a23.917,23.917,0,0,0,10.988-12.439c.558-1.462.973-2.982,1.595-4.419.533-1.237,1.216-2.41,1.688-3.672a11.929,11.929,0,0,0,.754-4.459c-.029-1.144-.218-2.281-.186-3.425A4.779,4.779,0,0,1,303.674,497.448Z" transform="translate(-287.72 -480.495)"/></g></svg>