<svg xmlns="http://www.w3.org/2000/svg" width="330.104" height="201.052" viewBox="0 0 330.104 201.052"><ellipse cx="96.962" cy="96.962" rx="96.962" ry="96.962" transform="translate(66.797)" fill="#f2f2f2"/><path d="M974.852,180.919l5.93,14.931c-1.147,5.194-2.27,11.051-3.17,17.288l-10.557-22.094-.173.266a47.784,47.784,0,0,1,8.153-10.638Z" transform="translate(-922.238 -158.334)" fill="#ffca63"/><path d="M952.294,178.609l-5.744-14.463A25.171,25.171,0,0,1,957.4,157.8c.2-.051.4-.095.594-.138C957.532,159.033,954.881,167.1,952.294,178.609Z" transform="translate(-893.547 -142.004)" fill="#ffca63"/><path d="M983.979,324.605l-.133.331q.212-3.382.667-6.691l18.353,22.937.067-.149q.06,2.03.179,4.006Z" transform="translate(-949.493 -255.969)" fill="#ffca63"/><path d="M978.427,234.4l-.155.3a75.114,75.114,0,0,1,6.8-16.377l10.758,22.514q-1.226,8.774-1.641,16.934Z" transform="translate(-940.591 -185.055)" fill="#ffca63"/><path d="M887.2,223.416a62.724,62.724,0,0,1,2.865,12.313L852.61,257.61c.335-4.713.842-9.223,1.43-13.39l33.2-20.45Z" transform="translate(-798.347 -188.669)" fill="#ffca63"/><path d="M889.106,271.575l-.034-.356L850.907,292.8q.081-1.737.2-3.443l37.593-21.962-.036-.356Q888.944,269.251,889.106,271.575Z" transform="translate(-796.894 -219.626)" fill="#ffca63"/><path d="M984.245,287.539l-.143.319a89.707,89.707,0,0,1,2.5-11.832l15.972,23.691q-.246,5.442-.124,10.568Z" transform="translate(-949.024 -226.006)" fill="#ffca63"/><path d="M973.163,415.273a73.163,73.163,0,0,0,6.986,20.138c-4.374-3.729-21.738-19.522-26.878-39.251Z" transform="translate(-917.655 -311.264)" fill="#ffca63"/><path d="M891.434,341.7a86.787,86.787,0,0,1-3.206,11.165l-.06-.386-32.073,23.328a107.88,107.88,0,0,1-1.67-12.822Z" transform="translate(-800.243 -272.616)" fill="#ffca63"/><path d="M891.571,177.709c2.8-12.455,5.674-20.827,5.716-20.947l-.18-.154c5.868-1.206,11.266.709,15.71,5.01Z" transform="translate(-832.411 -141.003)" fill="#ffca63"/><path d="M997.609,363.5c.028.408.053.818.085,1.223a107.2,107.2,0,0,0,1.516,11.565l-19.7-18.932-.123.328a42.49,42.49,0,0,1-1.284-10.648q.023-2.115.147-4.213Z" transform="translate(-943.923 -273.411)" fill="#ffca63"/><path d="M862.861,209.368c.895-6.165,2.006-11.953,3.141-17.086l21.734-16.46-.057-.343a36.174,36.174,0,0,1,8.111,13.606Z" transform="translate(-807.048 -154.648)" fill="#ffca63"/><path d="M866.028,404.893l31.839-23.158c-7.891,21.865-23.28,42.87-24.265,44.2A70.812,70.812,0,0,1,866.028,404.893Z" transform="translate(-810.045 -301.027)" fill="#ffca63"/><path d="M850.523,321.248l-.018-.02a145.6,145.6,0,0,1-.15-15.672l38.258-21.632q.2,3.149.171,6.476a52.169,52.169,0,0,1-1.041,9.441Z" transform="translate(-796.375 -231.611)" fill="#ffca63"/><path d="M1089.753,467.027l14.09,7.718c2.429,4.732,5.3,9.959,8.584,15.337L1090.205,479.8l.037.315a47.781,47.781,0,0,1-.505-13.393Z" transform="translate(-1089.474 -361.341)" fill="#ffca63"/><path d="M1134.159,443.172,1120.51,435.7a25.171,25.171,0,0,1,4.309-11.806c.121-.166.245-.326.369-.486C1125.708,424.754,1128.809,432.655,1134.159,443.172Z" transform="translate(-1120.215 -330.599)" fill="#ffca63"/><path d="M1022.491,616.975l.108.34q-1.993-2.74-3.754-5.579l28.765,5.96-.043-.157q1.341,1.526,2.692,2.971Z" transform="translate(-1006.802 -464.257)" fill="#ffca63"/><path d="M1059.982,530.613l.075.333A75.118,75.118,0,0,1,1054.845,514l22.646,10.478q4.652,7.54,9.536,14.089Z" transform="translate(-1054.021 -394.893)" fill="#ffca63"/><path d="M1022.337,420.426a62.721,62.721,0,0,1,10.06,7.656l-14.891,40.742c-2.748-3.844-5.234-7.641-7.439-11.225l12.527-36.925Z" transform="translate(-986.39 -328.485)" fill="#ffca63"/><path d="M1015.947,450.833l-.254-.253-15.63,40.962q-1.045-1.389-2.046-2.776l14.944-40.892-.255-.251Q1014.34,449.147,1015.947,450.833Z" transform="translate(-966.442 -347.787)" fill="#ffca63"/><path d="M1035.432,583.974l.093.337a89.7,89.7,0,0,1-5.625-10.7l27.412,8.059q3.282,4.348,6.645,8.218Z" transform="translate(-1023.709 -437.197)" fill="#ffca63"/><path d="M945.746,672.465a73.165,73.165,0,0,0,18.225,11.054c-5.747-.083-29.194-1.171-45.736-13.088Z" transform="translate(-891.306 -505.912)" fill="#ffca63"/><path d="M961.979,506.391a86.784,86.784,0,0,1,4.652,10.644l-.292-.26L956.516,555.2a107.89,107.89,0,0,1-9.464-8.81Z" transform="translate(-902.331 -389.494)" fill="#ffca63"/><path d="M1107.369,427.26c-5.786-11.38-8.913-19.66-8.958-19.779l-.237,0c3.75-4.672,9.13-6.64,15.3-6.161Z" transform="translate(-1093.042 -314.874)" fill="#ffca63"/><path d="M1012.187,635.767c.282.3.563.6.845.888a107.2,107.2,0,0,0,8.544,7.94l-27.25-2.014.115.331a42.493,42.493,0,0,1-7.78-7.382q-1.331-1.644-2.574-3.339Z" transform="translate(-968.028 -478.773)" fill="#ffca63"/><path d="M1054.181,443.5c-3.243-5.319-6.079-10.485-8.479-15.163l6.241-26.539-.262-.228a36.173,36.173,0,0,1,14.925,5.306Z" transform="translate(-1030.944 -315.103)" fill="#ffca63"/><path d="M913.738,582.768l9.751-38.143c7.868,21.873,9.413,47.866,9.5,49.521A70.811,70.811,0,0,1,913.738,582.768Z" transform="translate(-859.023 -416.629)" fill="#ffca63"/><path d="M974.624,512.631l-.027,0a145.582,145.582,0,0,1-10.111-11.975l15.669-41.062q2.166,2.295,4.262,4.879a52.173,52.173,0,0,1,5.22,7.935Z" transform="translate(-930.398 -356.28)" fill="#ffca63"/><path d="M848.852,384.321l1.024,16.033c-2.7,4.585-5.574,9.808-8.359,15.461l-3.211-24.275-.247.2a47.784,47.784,0,0,1,11.042-7.6Z" transform="translate(-753.934 -302.736)" fill="#ffca63"/><path d="M796.444,392.6l-.992-15.531a25.172,25.172,0,0,1,12.279-2.681c.2.013.406.032.608.052C807.477,375.6,802.463,382.447,796.444,392.6Z" transform="translate(-700.028 -295.782)" fill="#ffca63"/><path d="M905.637,501.934l-.229.274q1.247-3.15,2.7-6.157l10.365,27.487.11-.121q-.571,1.949-1.068,3.865Z" transform="translate(-842.195 -382.156)" fill="#ffca63"/><path d="M868.587,424.325l-.241.242a75.119,75.119,0,0,1,11.525-13.475l3.273,24.737q-3.878,7.966-6.795,15.6Z" transform="translate(-795.995 -321.861)" fill="#ffca63"/><path d="M779.261,463.182a62.719,62.719,0,0,1-1.081,12.6L735.8,485.01c1.776-4.379,3.652-8.511,5.5-12.292l37.894-9.186Z" transform="translate(-653.64 -358.829)" fill="#ffca63"/><path d="M782.653,512.222l.078-.349L739.765,520.6q.614-1.627,1.25-3.214l42.54-9.267.075-.35Q783.218,509.963,782.653,512.222Z" transform="translate(-659.154 -390.471)" fill="#ffca63"/><path d="M893.206,468.841l-.235.259A89.688,89.688,0,0,1,899,458.62l7.867,27.468q-1.916,5.1-3.384,10.012Z" transform="translate(-826.868 -355.591)" fill="#ffca63"/><path d="M930.452,595.112a73.164,73.164,0,0,0,.419,21.311c-3.007-4.9-14.639-25.285-13.429-45.637Z" transform="translate(-857.95 -435.195)" fill="#ffca63"/><path d="M808.875,578.165a86.78,86.78,0,0,1-6.5,9.628l.063-.386-37.713,12.272a107.891,107.891,0,0,1,2.375-12.71Z" transform="translate(-691.644 -440.432)" fill="#ffca63"/><path d="M748.443,393.108c6.515-10.979,11.834-18.053,11.911-18.155l-.123-.2c5.953.667,10.5,4.157,13.392,9.621Z" transform="translate(-651.664 -296.07)" fill="#ffca63"/><path d="M925.486,544.335c-.1.4-.2.795-.3,1.189a107.2,107.2,0,0,0-2.132,11.467L910.17,532.9l-.218.274a42.5,42.5,0,0,1,2.071-10.524q.676-2,1.442-3.961Z" transform="translate(-850.415 -398.219)" fill="#ffca63"/><path d="M735.855,433.4c2.757-5.587,5.6-10.748,8.268-15.279l25.757-8.936.052-.344a36.172,36.172,0,0,1,3.508,15.447Z" transform="translate(-647.829 -320.263)" fill="#ffca63"/><path d="M788.693,624.834l37.437-12.182c-14.263,18.355-35.39,33.574-36.74,34.538A70.806,70.806,0,0,1,788.693,624.834Z" transform="translate(-715.695 -464.907)" fill="#ffca63"/><path d="M743.445,548.055l-.011-.024a145.6,145.6,0,0,1,4.7-14.951l43.071-8.747q-.779,3.058-1.839,6.212a52.174,52.174,0,0,1-3.908,8.657Z" transform="translate(-667.795 -402.227)" fill="#ffca63"/><path d="M130.211,695.978q-43.97-.519-87.937.595a29.027,29.027,0,0,0-7.365.814c-2.227.668-3.94,2.1-3.331,3.477q17.163.508,34.362.314c2.5,1.223,5.238,3.065,3.7,4.715-1.062,1.141-3.683,1.481-5.975,1.484-4.152,0-8.32-.677-12.41-.277s-8.172,2.551-6.973,4.784c.91,1.7,4.362,2.536,7.5,2.685s6.358-.162,9.429.24a68.407,68.407,0,0,1,8.177,2.066,76.035,76.035,0,0,0,13.782,1.716c36.077,2.2,72.453,2.187,108.742,2.167,14.691-.008,29.582-.03,43.769-2.175,8.087-1.223,15.836-3.121,24.025-4.106,9.781-1.177,19.891-1.017,29.894-.982q26.341.093,52.637-1.015c1.3-.055,2.906-.241,3.258-.949.411-.826-1.257-1.471-2.666-1.8a154.81,154.81,0,0,0-24.287-3.623c-4.142-.291-8.41-.44-12.22-1.4s-7.138-2.97-7.1-5.315c.011-.715.313-1.481-.284-2.113-.793-.839-2.744-1.032-4.427-1.123-18.658-1.014-37.417-1.438-56.16-1.267-6.593.06-13.213.192-19.759-.252-5.364-.364-10.617-1.111-15.9-1.738-7.1-.842-37.975-5.2-42.48-1.664-3.372,2.649,3.59,3.221-5.454,4.3C146.885,696.479,138.2,696.073,130.211,695.978Z" transform="translate(-15.461 -519.709)" fill="#f2f2f2"/><circle cx="17.418" cy="17.418" r="17.418" transform="translate(113.536 49.352)" fill="#2f2e41"/><circle cx="17.418" cy="17.418" r="17.418" transform="translate(94.666 26.418)" fill="#2f2e41"/><path d="M749.354,264.587a17.419,17.419,0,0,0,26.9-9.146,17.419,17.419,0,1,1-33.979-7.143A17.413,17.413,0,0,0,749.354,264.587Z" transform="translate(-652.293 -206.327)" fill="#2f2e41"/><ellipse cx="14.225" cy="14.225" rx="14.225" ry="14.225" transform="translate(121.229 59.368)" fill="#a0616a"/><path d="M686.563,384.45s-5.806,8.709-4.935,12.483c0,0,3.774,1.742,3.774,2.322s3.484,6.1,3.484,6.1l4.064,5.516,1.742,7.258h-8.419l-9.29-7.258-9-9.87s-6.1-2.9-9.29-.581l-1.742,1.452s6.1-8.129,9-9.87c0,0,5.225-6.387,4.645-12.773Z" transform="translate(-546.174 -299.245)" fill="#a0616a"/><path d="M621.3,439.224s5.806,3.193,8.129,9.29S642.2,474.932,642.2,474.932s.871,13.064.29,13.644-7.258-5.806-8.419-7.548-5.806-22.644-5.806-22.644l-7.548-12.193-1.452-6.967Z" transform="translate(-483.23 -341.826)" fill="#a0616a"/><path d="M514.93,495.772l2.613-.871s15.967-9.87,16.838-14.225,13.644-18.87,13.935-11.032-9.29,16.547-9.29,16.547-20.9,29.321-22.063,20.9Z" transform="translate(-358.574 -361.795)" fill="#a0616a"/><path d="M805.141,461.995s-.29,8.129-11.612,11.032c0,0-11.612,15.677-12.773,22.644s-31.643,42.675-31.643,42.675-28.16,3.484-28.16,0,23.515-6.387,23.515-6.387,24.676-36.579,25.837-41.514,12.193-41.514,17.418-41.223c0,0,4.935-2.322,7.838-.581S805.141,461.995,805.141,461.995Z" transform="translate(-675.202 -348.049)" fill="#a0616a"/><path d="M266.041,534.351s20.321-27.289,24.676-29.031,9.87-2.9,13.064,1.161,40.933,51.674,40.933,51.674,13.354,13.644,20.031,11.032c0,0,3.484,2.9-4.645,3.484a48.439,48.439,0,0,1-15.677-1.742s-4.935.871-8.419,1.742-7.838,1.161-7.548-1.161l1.161-9.29s-29.9-24.676-30.772-35.127c0,0,.581-4.935,0-4.355s-12.773,13.644-18.289,16.547-19.16,6.967-19.16,6.967Z" transform="translate(-102.137 -387.602)" fill="#a0616a"/><path d="M266.041,534.351s20.321-27.289,24.676-29.031,9.87-2.9,13.064,1.161,40.933,51.674,40.933,51.674,13.354,13.644,20.031,11.032c0,0,3.484,2.9-4.645,3.484a48.439,48.439,0,0,1-15.677-1.742s-4.935.871-8.419,1.742-7.838,1.161-7.548-1.161l1.161-9.29s-29.9-24.676-30.772-35.127c0,0,.581-4.935,0-4.355s-12.773,13.644-18.289,16.547-19.16,6.967-19.16,6.967Z" transform="translate(-102.137 -387.602)" opacity="0.1"/><path d="M157.224,581.614s26.708-10.161,30.192-12.483,15.967-6.967,22.354-1.742,37.45,29.321,47.9,31.643,28.45,7.838,28.45,7.838,11.612.871-.871,5.806c0,0-15.386,1.452-18,3.774s-11.322,5.226-11.9,1.452-2.322-8.709-5.516-9.29-41.514-11.032-47.32-22.354c0,0-13.064,7.258-21.192,15.677S154.031,615,154.031,615Z" transform="translate(3.487 -431.09)" fill="#a0616a"/><path d="M617.172,590.224s12.726,3.383,13.766,2.127,6.556,5.711,1.33,19.646-4.064,20.321-6.967,22.354-16.547-1.161-20.612.29-9.29,2.613-11.032-5.806-6.1-23.224-5.226-25.257,5.516-6.677,5.516-6.677l9.58-4.935Z" transform="translate(-466.041 -448.99)" fill="#3f3d56"/><path d="M633.917,450.046s2.021-5.661,5.773-6.723a9.641,9.641,0,0,0,.937-.307,7.148,7.148,0,0,1,8.822,2.53c3.774,5.225,7.258,11.322,4.355,14.806s-8.709,5.516-8.709,5.516l-4.355,5.516s8.709,15.677,8.709,22.934c0,0,.29,2.9,5.225-2.322s25.131-8.838,25.131-8.838-4.229-5.677-1.036-8.29,6.117-13.02-1.441-17.106L664.4,438.724l-2.322.29s3.048,2.758,3.339,4.209,11.9,11.612,7.258,13.354-12.193-2.032-15.386-6.387c-1.756-2.4-4.215-5.668-7.328-7.743a10.854,10.854,0,0,0-10.857-.583l-.975.487h0a12.436,12.436,0,0,0-4.3,5.289l-.346.807Z" transform="translate(-526.767 -341.471)" fill="#2f2e41"/><ellipse cx="12.773" cy="12.773" rx="12.773" ry="12.773" transform="translate(113.536 56.9)" fill="#2f2e41"/><ellipse cx="11.322" cy="8.854" rx="11.322" ry="8.854" transform="translate(125.729 56.029)" fill="#2f2e41"/><ellipse cx="1.887" cy="3.339" rx="1.887" ry="3.339" transform="translate(130.954 75.48)" fill="#a0616a"/><path d="M698.952,270.28V293.4h6.677V270.28a1.556,1.556,0,0,0-1.556-1.556h-3.565a1.556,1.556,0,0,0-1.556,1.556Z" transform="translate(-569.304 -220.823)" fill="#ff6584"/><ellipse cx="7.258" cy="7.258" rx="7.258" ry="7.258" transform="translate(125.729 69.964)" fill="#ffca63"/><ellipse cx="3.193" cy="3.193" rx="3.193" ry="3.193" transform="translate(129.793 74.028)" fill="#f2f2f2"/><ellipse cx="0.871" cy="0.871" rx="0.871" ry="0.871" transform="translate(132.116 76.351)" fill="#ff6584"/><path d="M698.952,270.28v1.057h6.677V270.28a1.556,1.556,0,0,0-1.556-1.556h-3.565a1.556,1.556,0,0,0-1.556,1.556Z" transform="translate(-569.304 -220.823)" opacity="0.1"/><path d="M489.5,427.3l-17.093-17.093a3.188,3.188,0,0,0-4.509,0l-15.377,15.377a3.188,3.188,0,0,0,0,4.509l15.971,15.971a3.188,3.188,0,0,0,4.339.158l16.5-14.254a3.188,3.188,0,0,0,.17-4.667Z" transform="translate(-282.3 -320.57)" fill="#2f2e41"/><path d="M467.289,340.451,452.338,325.5,440,337.838l14.37,14.37Z" transform="translate(-264.919 -231.005)" fill="#f2f2f2"/><ellipse cx="7.145" cy="7.145" rx="7.145" ry="7.145" transform="translate(181.29 100.559)" fill="#ffca63"/><path d="M502.12,463.348a7.145,7.145,0,0,0-7.278-11.941,7.144,7.144,0,1,1,6.484,12.586A7.184,7.184,0,0,0,502.12,463.348Z" transform="translate(-310.505 -349.555)" opacity="0.1"/><path d="M514.7,469.305c-.852.8-.9,3.683.4,5.067s3.455.747,4.307-.053.079-1.462-1.222-2.846S515.553,468.505,514.7,469.305Z" transform="translate(-329.779 -363.022)" fill="#f2f2f2"/><ellipse cx="2.117" cy="2.117" rx="2.117" ry="2.117" transform="translate(190.059 105.703)" fill="#2f2e41"/><ellipse cx="2.117" cy="2.117" rx="2.117" ry="2.117" transform="translate(186.253 101.653)" fill="#2f2e41"/><ellipse cx="0.529" cy="0.529" rx="0.529" ry="0.529" transform="translate(191.646 107.291)" fill="#f2f2f2"/><circle cx="0.265" cy="0.265" r="0.265" transform="translate(192.139 106.252)" fill="#f2f2f2"/><circle cx="0.265" cy="0.265" r="0.265" transform="translate(188.334 102.202)" fill="#f2f2f2"/><ellipse cx="0.529" cy="0.529" rx="0.529" ry="0.529" transform="translate(187.841 103.241)" fill="#f2f2f2"/></svg>